<?xml version="1.0" encoding="UTF-8"?>
<svg xmlns="http://www.w3.org/2000/svg" xmlns:xlink="http://www.w3.org/1999/xlink" width="854" height="480" viewBox="0 0 854 480">
<defs>
<g>
<g id="glyph-0-0">
<path d="M 4.234375 0 L 3.21875 0 L 1.425781 -2.023438 L 1.410156 -2.023438 L 1.410156 0 L 0.664062 0 L 0.664062 -6.214844 L 1.410156 -6.214844 L 1.410156 -2.273438 L 1.425781 -2.273438 L 3.128906 -4.199219 L 4.085938 -4.199219 L 2.1875 -2.179688 Z "/>
</g>
<g id="glyph-0-1">
<path d="M 1.953125 -4.292969 C 2.085938 -4.292969 2.203125 -4.246094 2.296875 -4.152344 C 2.394531 -4.058594 2.441406 -3.945312 2.441406 -3.8125 C 2.441406 -3.679688 2.394531 -3.566406 2.300781 -3.472656 C 2.207031 -3.378906 2.089844 -3.332031 1.953125 -3.332031 C 1.8125 -3.332031 1.695312 -3.378906 1.601562 -3.472656 C 1.507812 -3.566406 1.460938 -3.679688 1.460938 -3.8125 C 1.460938 -3.945312 1.511719 -4.058594 1.605469 -4.152344 C 1.703125 -4.246094 1.816406 -4.292969 1.953125 -4.292969 M 1.953125 -0.871094 C 2.085938 -0.871094 2.203125 -0.824219 2.296875 -0.730469 C 2.394531 -0.636719 2.441406 -0.523438 2.441406 -0.386719 C 2.441406 -0.25 2.394531 -0.136719 2.296875 -0.0429688 C 2.203125 0.046875 2.085938 0.09375 1.953125 0.09375 C 1.816406 0.09375 1.703125 0.046875 1.605469 -0.0429688 C 1.511719 -0.136719 1.460938 -0.25 1.460938 -0.386719 C 1.460938 -0.523438 1.511719 -0.636719 1.605469 -0.730469 C 1.703125 -0.824219 1.816406 -0.871094 1.953125 -0.871094 Z "/>
</g>
<g id="glyph-0-2">
<path d="M 1.625 -0.945312 L 4.503906 -0.945312 L 4.503906 -1.75 L 2.1875 -1.75 L 2.1875 -2.304688 C 2.449219 -2.6875 2.699219 -3.101562 2.929688 -3.550781 L 1.824219 -3.550781 L 1.824219 -4.097656 L 3.195312 -4.097656 C 3.320312 -4.367188 3.441406 -4.648438 3.554688 -4.941406 L 4.175781 -4.773438 C 4.074219 -4.539062 3.96875 -4.316406 3.863281 -4.097656 L 7.183594 -4.097656 L 7.183594 -3.550781 L 3.589844 -3.550781 C 3.355469 -3.101562 3.117188 -2.683594 2.878906 -2.296875 L 4.503906 -2.296875 L 4.503906 -3.261719 L 5.113281 -3.261719 L 5.113281 -2.296875 L 7.191406 -2.296875 L 7.191406 -1.75 L 5.113281 -1.75 L 5.113281 -0.945312 L 7.566406 -0.945312 L 7.566406 -0.398438 L 5.113281 -0.398438 L 5.113281 1.007812 L 4.503906 1.007812 L 4.503906 -0.398438 L 1.625 -0.398438 L 1.625 -0.945312 M 3.621094 -6.222656 L 4.085938 -6.566406 C 4.328125 -6.332031 4.554688 -6.078125 4.761719 -5.804688 L 4.4375 -5.570312 L 7.578125 -5.570312 L 7.578125 -5.023438 L 1.464844 -5.023438 L 1.464844 -2.859375 C 1.472656 -1.117188 1.140625 0.191406 0.472656 1.066406 C 0.34375 0.90625 0.199219 0.734375 0.0390625 0.550781 C 0.589844 -0.171875 0.863281 -1.273438 0.859375 -2.753906 L 0.859375 -5.570312 L 4.152344 -5.570312 C 3.984375 -5.792969 3.808594 -6.007812 3.621094 -6.222656 Z "/>
</g>
<g id="glyph-0-3">
<path d="M 1.617188 -3.488281 L 2.226562 -3.488281 L 2.226562 -1.886719 C 3.621094 -2.332031 4.832031 -2.855469 5.847656 -3.460938 L 6.257812 -2.957031 C 4.960938 -2.273438 3.617188 -1.710938 2.226562 -1.273438 L 2.226562 -0.460938 C 2.226562 -0.0390625 2.449219 0.171875 2.902344 0.171875 L 5.324219 0.171875 C 5.769531 0.171875 6.027344 -0.0585938 6.089844 -0.519531 C 6.136719 -0.8125 6.171875 -1.144531 6.199219 -1.515625 C 6.390625 -1.429688 6.585938 -1.355469 6.789062 -1.296875 C 6.757812 -0.984375 6.722656 -0.683594 6.675781 -0.390625 C 6.570312 0.367188 6.140625 0.75 5.390625 0.75 L 2.796875 0.75 C 2.011719 0.75 1.617188 0.382812 1.617188 -0.34375 L 1.617188 -3.488281 M 4.496094 -6.359375 L 4.3125 -6.140625 C 5.183594 -5.023438 6.304688 -4.203125 7.671875 -3.6875 C 7.601562 -3.605469 7.464844 -3.410156 7.269531 -3.09375 C 5.832031 -3.777344 4.710938 -4.648438 3.910156 -5.707031 C 3.125 -4.699219 1.980469 -3.796875 0.476562 -2.996094 C 0.304688 -3.273438 0.179688 -3.460938 0.0976562 -3.550781 C 1.636719 -4.300781 2.816406 -5.238281 3.636719 -6.359375 Z "/>
</g>
<g id="glyph-0-4">
<path d="M 1.472656 0.453125 L 0.882812 0.453125 L 0.882812 -1.710938 L 3.601562 -1.710938 L 3.601562 -2.425781 L 2.113281 -2.425781 L 2.113281 -2.152344 L 1.535156 -2.152344 L 1.535156 -4.089844 L 6.289062 -4.089844 L 6.289062 -2.152344 L 5.710938 -2.152344 L 5.710938 -2.425781 L 4.207031 -2.425781 L 4.207031 -1.710938 L 6.996094 -1.710938 L 6.996094 -0.414062 C 6.996094 0.167969 6.6875 0.460938 6.074219 0.460938 C 5.816406 0.460938 5.523438 0.457031 5.1875 0.453125 C 5.15625 0.273438 5.117188 0.078125 5.074219 -0.132812 C 5.382812 -0.101562 5.667969 -0.0859375 5.933594 -0.0859375 C 6.246094 -0.0859375 6.402344 -0.222656 6.402344 -0.496094 L 6.402344 -1.210938 L 4.207031 -1.210938 L 4.207031 1.035156 L 3.601562 1.035156 L 3.601562 -1.210938 L 1.472656 -1.210938 L 1.472656 0.453125 M 0.433594 -5.121094 L 2.222656 -5.121094 C 1.882812 -5.410156 1.527344 -5.691406 1.160156 -5.957031 L 1.511719 -6.351562 C 1.890625 -6.101562 2.273438 -5.835938 2.660156 -5.554688 L 2.25 -5.121094 L 3.59375 -5.121094 L 3.59375 -6.453125 L 4.199219 -6.453125 L 4.199219 -5.121094 L 5.453125 -5.121094 L 5.148438 -5.503906 C 5.566406 -5.777344 5.960938 -6.066406 6.335938 -6.375 L 6.773438 -5.929688 C 6.414062 -5.660156 6.03125 -5.390625 5.628906 -5.121094 L 7.359375 -5.121094 L 7.359375 -3.777344 L 6.765625 -3.777344 L 6.765625 -4.605469 L 1.023438 -4.605469 L 1.023438 -3.777344 L 0.433594 -3.777344 L 0.433594 -5.121094 M 5.710938 -3.605469 L 2.113281 -3.605469 L 2.113281 -2.914062 L 5.710938 -2.914062 Z "/>
</g>
<g id="glyph-0-5">
<path d="M 5.074219 -6.445312 L 5.679688 -6.351562 C 5.574219 -5.863281 5.449219 -5.402344 5.308594 -4.980469 L 7.632812 -4.980469 L 7.632812 -4.460938 L 7.15625 -4.460938 C 7.027344 -2.972656 6.703125 -1.792969 6.183594 -0.914062 C 6.59375 -0.359375 7.113281 0.0976562 7.746094 0.453125 C 7.585938 0.675781 7.449219 0.875 7.335938 1.050781 C 6.71875 0.652344 6.207031 0.175781 5.796875 -0.375 C 5.328125 0.203125 4.773438 0.703125 4.132812 1.128906 C 4.019531 0.980469 3.875 0.820312 3.699219 0.648438 C 4.40625 0.183594 4.980469 -0.34375 5.421875 -0.9375 C 5.011719 -1.648438 4.742188 -2.464844 4.609375 -3.390625 C 4.503906 -3.203125 4.390625 -3.027344 4.277344 -2.867188 C 4.175781 -3.015625 4.046875 -3.175781 3.894531 -3.351562 C 4.484375 -4.199219 4.875 -5.230469 5.074219 -6.445312 M 0.183594 -2.0625 L 1.335938 -2.0625 C 1.449219 -2.253906 1.558594 -2.453125 1.664062 -2.65625 L 2.210938 -2.480469 C 2.128906 -2.339844 2.046875 -2.199219 1.96875 -2.0625 L 3.828125 -2.0625 L 3.828125 -1.570312 C 3.636719 -1.070312 3.34375 -0.636719 2.953125 -0.261719 C 3.234375 -0.128906 3.515625 0 3.804688 0.132812 L 3.472656 0.65625 C 3.15625 0.480469 2.832031 0.300781 2.492188 0.125 C 1.917969 0.535156 1.199219 0.859375 0.328125 1.097656 C 0.246094 0.933594 0.160156 0.757812 0.0664062 0.566406 C 0.808594 0.398438 1.433594 0.160156 1.945312 -0.15625 C 1.507812 -0.378906 1.054688 -0.605469 0.578125 -0.839844 C 0.738281 -1.070312 0.894531 -1.3125 1.046875 -1.5625 L 0.183594 -1.5625 L 0.183594 -2.0625 M 0.265625 -4.675781 L 2.011719 -4.675781 L 2.011719 -6.375 L 2.574219 -6.375 L 2.574219 -4.675781 L 4.03125 -4.675781 L 4.03125 -4.171875 L 2.574219 -4.171875 L 2.574219 -3.710938 L 2.800781 -3.96875 C 3.273438 -3.625 3.667969 -3.320312 3.988281 -3.058594 L 3.621094 -2.632812 C 3.34375 -2.894531 2.996094 -3.191406 2.574219 -3.519531 L 2.574219 -2.65625 L 2.011719 -2.65625 L 2.011719 -3.71875 C 1.550781 -3.238281 1.015625 -2.8125 0.402344 -2.449219 C 0.304688 -2.597656 0.199219 -2.75 0.0742188 -2.914062 C 0.714844 -3.257812 1.296875 -3.675781 1.832031 -4.171875 L 0.265625 -4.171875 L 0.265625 -4.675781 M 6.546875 -4.460938 L 5.125 -4.460938 C 5.101562 -4.394531 5.074219 -4.332031 5.042969 -4.273438 C 5.132812 -3.199219 5.386719 -2.28125 5.800781 -1.515625 C 6.207031 -2.253906 6.457031 -3.238281 6.546875 -4.460938 M 1.320312 -1.015625 C 1.679688 -0.851562 2.050781 -0.683594 2.429688 -0.503906 C 2.78125 -0.804688 3.054688 -1.15625 3.25 -1.5625 L 1.671875 -1.5625 C 1.554688 -1.375 1.4375 -1.191406 1.320312 -1.015625 M 3.691406 -6.1875 L 4.160156 -5.875 C 3.882812 -5.511719 3.605469 -5.171875 3.328125 -4.863281 C 3.210938 -4.964844 3.074219 -5.070312 2.917969 -5.183594 C 3.179688 -5.492188 3.4375 -5.828125 3.691406 -6.1875 M 0.464844 -5.851562 L 0.894531 -6.148438 C 1.125 -5.871094 1.359375 -5.570312 1.601562 -5.253906 L 1.132812 -4.917969 C 0.910156 -5.246094 0.6875 -5.558594 0.464844 -5.851562 Z "/>
</g>
<g id="glyph-0-6">
<path d="M 2.347656 -0.941406 L 1.707031 1.082031 L 1.171875 1.082031 L 1.640625 -0.941406 Z "/>
</g>
<g id="glyph-0-7">
<path d="M 0.371094 -1.640625 C 0.371094 -1.980469 0.472656 -2.292969 0.675781 -2.578125 C 0.878906 -2.863281 1.140625 -3.070312 1.457031 -3.191406 C 1.203125 -3.335938 1 -3.519531 0.851562 -3.746094 C 0.703125 -3.96875 0.625 -4.214844 0.625 -4.476562 C 0.625 -4.753906 0.699219 -5.011719 0.839844 -5.242188 C 0.984375 -5.472656 1.183594 -5.652344 1.4375 -5.785156 C 1.691406 -5.914062 1.972656 -5.980469 2.277344 -5.980469 C 2.585938 -5.980469 2.871094 -5.914062 3.125 -5.785156 C 3.382812 -5.65625 3.578125 -5.476562 3.722656 -5.246094 C 3.863281 -5.015625 3.933594 -4.757812 3.933594 -4.476562 C 3.933594 -4.21875 3.863281 -3.976562 3.714844 -3.75 C 3.570312 -3.523438 3.367188 -3.335938 3.109375 -3.191406 C 3.429688 -3.066406 3.6875 -2.859375 3.890625 -2.574219 C 4.089844 -2.289062 4.1875 -1.976562 4.1875 -1.640625 C 4.1875 -1.304688 4.109375 -1.007812 3.949219 -0.742188 C 3.789062 -0.476562 3.5625 -0.273438 3.269531 -0.125 C 2.976562 0.0234375 2.644531 0.09375 2.277344 0.09375 C 1.914062 0.09375 1.585938 0.0234375 1.296875 -0.125 C 1.003906 -0.273438 0.777344 -0.476562 0.613281 -0.746094 C 0.453125 -1.011719 0.371094 -1.308594 0.371094 -1.640625 M 1.101562 -1.675781 C 1.101562 -1.324219 1.207031 -1.046875 1.425781 -0.835938 C 1.640625 -0.625 1.925781 -0.519531 2.28125 -0.519531 C 2.632812 -0.519531 2.917969 -0.628906 3.136719 -0.839844 C 3.359375 -1.054688 3.472656 -1.332031 3.472656 -1.675781 C 3.472656 -2 3.359375 -2.273438 3.136719 -2.492188 C 2.910156 -2.714844 2.625 -2.824219 2.28125 -2.824219 C 1.941406 -2.824219 1.660156 -2.71875 1.433594 -2.5 C 1.210938 -2.285156 1.101562 -2.007812 1.101562 -1.675781 M 1.3125 -4.417969 C 1.3125 -4.152344 1.40625 -3.925781 1.59375 -3.738281 C 1.78125 -3.550781 2.011719 -3.457031 2.28125 -3.457031 C 2.546875 -3.457031 2.777344 -3.550781 2.972656 -3.742188 C 3.164062 -3.929688 3.261719 -4.15625 3.261719 -4.417969 C 3.261719 -4.683594 3.167969 -4.90625 2.984375 -5.09375 C 2.796875 -5.277344 2.5625 -5.371094 2.28125 -5.371094 C 2.003906 -5.371094 1.773438 -5.277344 1.589844 -5.097656 C 1.40625 -4.917969 1.3125 -4.691406 1.3125 -4.417969 Z "/>
</g>
<g id="glyph-0-8">
<path d="M 0.453125 -0.390625 C 0.453125 -0.527344 0.5 -0.644531 0.59375 -0.738281 C 0.6875 -0.832031 0.800781 -0.878906 0.941406 -0.878906 C 1.082031 -0.878906 1.203125 -0.828125 1.296875 -0.734375 C 1.386719 -0.640625 1.433594 -0.523438 1.433594 -0.390625 C 1.433594 -0.257812 1.386719 -0.144531 1.296875 -0.0507812 C 1.203125 0.0429688 1.082031 0.0898438 0.9375 0.0898438 C 0.796875 0.0898438 0.683594 0.0429688 0.589844 -0.0507812 C 0.5 -0.144531 0.453125 -0.257812 0.453125 -0.390625 Z "/>
</g>
<g id="glyph-0-9">
<path d="M 0.703125 -0.796875 C 1.027344 -0.609375 1.375 -0.515625 1.75 -0.515625 C 2.277344 -0.515625 2.683594 -0.722656 2.976562 -1.140625 C 3.265625 -1.554688 3.410156 -2.144531 3.410156 -2.910156 C 3.40625 -2.902344 3.398438 -2.902344 3.394531 -2.910156 C 3.136719 -2.417969 2.703125 -2.171875 2.09375 -2.171875 C 1.597656 -2.171875 1.191406 -2.34375 0.867188 -2.679688 C 0.542969 -3.019531 0.378906 -3.460938 0.378906 -4.003906 C 0.378906 -4.578125 0.558594 -5.054688 0.910156 -5.425781 C 1.265625 -5.796875 1.726562 -5.980469 2.289062 -5.980469 C 2.875 -5.980469 3.332031 -5.75 3.660156 -5.292969 C 3.988281 -4.832031 4.15625 -4.164062 4.15625 -3.285156 C 4.15625 -2.199219 3.941406 -1.363281 3.515625 -0.777344 C 3.089844 -0.195312 2.503906 0.0976562 1.75 0.0976562 C 1.339844 0.0976562 0.988281 0.03125 0.703125 -0.101562 L 0.703125 -0.796875 M 1.132812 -4.097656 C 1.132812 -3.703125 1.234375 -3.390625 1.433594 -3.15625 C 1.636719 -2.925781 1.917969 -2.808594 2.273438 -2.808594 C 2.582031 -2.808594 2.84375 -2.914062 3.054688 -3.128906 C 3.261719 -3.339844 3.367188 -3.59375 3.367188 -3.894531 C 3.367188 -4.320312 3.265625 -4.667969 3.054688 -4.945312 C 2.847656 -5.222656 2.570312 -5.363281 2.230469 -5.363281 C 1.914062 -5.363281 1.652344 -5.242188 1.441406 -5 C 1.234375 -4.761719 1.132812 -4.460938 1.132812 -4.097656 Z "/>
</g>
<g id="glyph-0-10">
</g>
<g id="glyph-0-11">
<path d="M 4.6875 -1.054688 L 4.277344 -0.644531 L 2.882812 -2.039062 L 1.496094 -0.644531 L 1.085938 -1.054688 L 2.484375 -2.441406 L 1.085938 -3.835938 L 1.496094 -4.242188 L 2.882812 -2.847656 L 4.28125 -4.242188 L 4.6875 -3.832031 L 3.292969 -2.441406 Z "/>
</g>
<g id="glyph-0-12">
<path d="M 2.164062 0 L 2.164062 -5.03125 C 2.046875 -4.914062 1.851562 -4.785156 1.574219 -4.640625 C 1.296875 -4.496094 1.039062 -4.394531 0.804688 -4.335938 L 0.804688 -5.066406 C 1.117188 -5.152344 1.449219 -5.289062 1.804688 -5.476562 C 2.160156 -5.667969 2.429688 -5.84375 2.621094 -6.011719 L 2.902344 -6.011719 L 2.902344 0 Z "/>
</g>
<g id="glyph-0-13">
<path d="M 0.34375 -2.824219 C 0.34375 -3.863281 0.519531 -4.648438 0.863281 -5.183594 C 1.207031 -5.714844 1.707031 -5.980469 2.359375 -5.980469 C 3.605469 -5.980469 4.226562 -4.976562 4.226562 -2.964844 C 4.226562 -1.972656 4.050781 -1.214844 3.699219 -0.6875 C 3.351562 -0.164062 2.859375 0.0976562 2.226562 0.0976562 C 1.628906 0.0976562 1.164062 -0.152344 0.835938 -0.648438 C 0.507812 -1.148438 0.34375 -1.875 0.34375 -2.824219 M 1.105469 -2.859375 C 1.105469 -1.296875 1.5 -0.515625 2.292969 -0.515625 C 3.074219 -0.515625 3.464844 -1.308594 3.464844 -2.898438 C 3.464844 -4.539062 3.082031 -5.363281 2.316406 -5.363281 C 1.507812 -5.363281 1.105469 -4.527344 1.105469 -2.859375 Z "/>
</g>
<g id="glyph-0-14">
<path d="M 4.847656 -2.550781 L 4.191406 -2.550781 L 2.847656 -5.074219 L 2.828125 -5.074219 L 1.574219 -2.550781 L 0.929688 -2.550781 L 2.664062 -5.980469 L 2.976562 -5.980469 Z "/>
</g>
<g id="glyph-0-15">
<path d="M 5.5625 0 L 4.664062 0 L 1.707031 -4.574219 C 1.621094 -4.707031 1.554688 -4.832031 1.503906 -4.960938 L 1.480469 -4.960938 C 1.5 -4.828125 1.511719 -4.554688 1.511719 -4.136719 L 1.511719 0 L 0.757812 0 L 0.757812 -5.882812 L 1.710938 -5.882812 L 4.589844 -1.386719 C 4.726562 -1.171875 4.808594 -1.039062 4.835938 -0.980469 L 4.847656 -0.980469 C 4.824219 -1.148438 4.8125 -1.433594 4.8125 -1.839844 L 4.8125 -5.882812 L 5.5625 -5.882812 Z "/>
</g>
<g id="glyph-0-16">
<path d="M 0.453125 -2.566406 C 0.453125 -2.703125 0.5 -2.816406 0.597656 -2.910156 C 0.691406 -3.003906 0.808594 -3.054688 0.941406 -3.054688 C 1.074219 -3.054688 1.191406 -3.007812 1.289062 -2.914062 C 1.386719 -2.820312 1.433594 -2.703125 1.433594 -2.566406 C 1.433594 -2.433594 1.386719 -2.320312 1.292969 -2.226562 C 1.199219 -2.128906 1.078125 -2.082031 0.9375 -2.082031 C 0.796875 -2.082031 0.683594 -2.128906 0.589844 -2.226562 C 0.5 -2.320312 0.453125 -2.433594 0.453125 -2.566406 Z "/>
</g>
<g id="glyph-0-17">
<path d="M 6.710938 0 L 5.964844 0 L 5.964844 -2.410156 C 5.964844 -2.867188 5.894531 -3.191406 5.753906 -3.390625 C 5.613281 -3.585938 5.378906 -3.683594 5.054688 -3.683594 C 4.78125 -3.683594 4.546875 -3.554688 4.351562 -3.300781 C 4.15625 -3.042969 4.058594 -2.742188 4.058594 -2.390625 L 4.058594 0 L 3.316406 0 L 3.316406 -2.488281 C 3.316406 -3.285156 3.007812 -3.683594 2.390625 -3.683594 C 2.109375 -3.683594 1.875 -3.5625 1.6875 -3.320312 C 1.5 -3.074219 1.410156 -2.765625 1.410156 -2.386719 L 1.410156 0 L 0.664062 0 L 0.664062 -4.199219 L 1.410156 -4.199219 L 1.410156 -3.535156 L 1.425781 -3.535156 C 1.722656 -4.042969 2.160156 -4.296875 2.734375 -4.296875 C 3.015625 -4.296875 3.261719 -4.222656 3.480469 -4.066406 C 3.695312 -3.914062 3.84375 -3.703125 3.925781 -3.441406 C 4.238281 -4.011719 4.703125 -4.296875 5.324219 -4.296875 C 6.25 -4.296875 6.710938 -3.730469 6.710938 -2.589844 Z "/>
</g>
<g id="glyph-0-18">
<path d="M 3.238281 -4.339844 C 3.238281 -4.65625 3.140625 -4.90625 2.9375 -5.085938 C 2.738281 -5.269531 2.46875 -5.359375 2.121094 -5.359375 C 1.878906 -5.359375 1.632812 -5.296875 1.386719 -5.171875 C 1.136719 -5.046875 0.90625 -4.871094 0.691406 -4.640625 L 0.691406 -5.363281 C 0.882812 -5.5625 1.101562 -5.714844 1.347656 -5.820312 C 1.589844 -5.929688 1.878906 -5.980469 2.207031 -5.980469 C 2.738281 -5.980469 3.164062 -5.839844 3.488281 -5.554688 C 3.8125 -5.269531 3.976562 -4.882812 3.976562 -4.398438 C 3.976562 -3.964844 3.875 -3.589844 3.679688 -3.273438 C 3.480469 -2.957031 3.140625 -2.632812 2.660156 -2.300781 C 2.167969 -1.960938 1.839844 -1.71875 1.671875 -1.570312 C 1.507812 -1.425781 1.390625 -1.285156 1.324219 -1.152344 C 1.257812 -1.015625 1.226562 -0.851562 1.226562 -0.660156 L 4.152344 -0.660156 L 4.152344 0 L 0.453125 0 L 0.453125 -0.292969 C 0.453125 -0.632812 0.5 -0.917969 0.589844 -1.15625 C 0.683594 -1.394531 0.835938 -1.625 1.046875 -1.847656 C 1.261719 -2.070312 1.59375 -2.339844 2.042969 -2.65625 C 2.503906 -2.980469 2.820312 -3.261719 2.988281 -3.507812 C 3.15625 -3.75 3.238281 -4.027344 3.238281 -4.339844 Z "/>
</g>
<g id="glyph-0-19">
<path d="M 3.390625 -5.882812 L 0.570312 0.976562 L -0.125 0.976562 L 2.695312 -5.882812 Z "/>
</g>
<g id="glyph-0-20">
<path d="M 4.785156 -0.242188 C 4.351562 -0.015625 3.808594 0.0976562 3.15625 0.0976562 C 2.3125 0.0976562 1.640625 -0.167969 1.136719 -0.703125 C 0.632812 -1.238281 0.378906 -1.949219 0.378906 -2.828125 C 0.378906 -3.777344 0.664062 -4.539062 1.230469 -5.117188 C 1.796875 -5.691406 2.519531 -5.980469 3.390625 -5.980469 C 3.953125 -5.980469 4.417969 -5.902344 4.785156 -5.742188 L 4.785156 -4.949219 C 4.363281 -5.179688 3.902344 -5.296875 3.398438 -5.296875 C 2.742188 -5.296875 2.207031 -5.078125 1.796875 -4.640625 C 1.382812 -4.207031 1.175781 -3.617188 1.175781 -2.875 C 1.175781 -2.171875 1.371094 -1.613281 1.753906 -1.199219 C 2.140625 -0.785156 2.644531 -0.578125 3.265625 -0.578125 C 3.847656 -0.578125 4.355469 -0.707031 4.785156 -0.972656 Z "/>
</g>
</g>
</defs>
<g fill="rgb(100%, 100%, 100%)" fill-opacity="1">
<use xlink:href="#glyph-0-0" x="30" y="28.229492"/>
<use xlink:href="#glyph-0-1" x="34" y="28.229492"/>
</g>
<g fill="rgb(100%, 100%, 100%)" fill-opacity="1">
<use xlink:href="#glyph-0-2" x="42" y="28.229492"/>
<use xlink:href="#glyph-0-3" x="50" y="28.229492"/>
<use xlink:href="#glyph-0-4" x="58" y="28.229492"/>
<use xlink:href="#glyph-0-5" x="66" y="28.229492"/>
<use xlink:href="#glyph-0-6" x="74" y="28.229492"/>
<use xlink:href="#glyph-0-7" x="82" y="28.229492"/>
<use xlink:href="#glyph-0-8" x="87" y="28.229492"/>
<use xlink:href="#glyph-0-9" x="89" y="28.229492"/>
<use xlink:href="#glyph-0-9" x="94" y="28.229492"/>
<use xlink:href="#glyph-0-10" x="99" y="28.229492"/>
<use xlink:href="#glyph-0-11" x="101" y="28.229492"/>
<use xlink:href="#glyph-0-10" x="107" y="28.229492"/>
<use xlink:href="#glyph-0-12" x="109" y="28.229492"/>
<use xlink:href="#glyph-0-13" x="114" y="28.229492"/>
<use xlink:href="#glyph-0-14" x="119" y="28.229492"/>
<use xlink:href="#glyph-0-9" x="125" y="28.229492"/>
<use xlink:href="#glyph-0-10" x="130" y="28.229492"/>
</g>
<g fill="rgb(100%, 100%, 100%)" fill-opacity="1">
<use xlink:href="#glyph-0-15" x="132" y="28.229492"/>
<use xlink:href="#glyph-0-16" x="138" y="28.229492"/>
<use xlink:href="#glyph-0-17" x="140" y="28.229492"/>
<use xlink:href="#glyph-0-14" x="147" y="28.229492"/>
<use xlink:href="#glyph-0-18" x="153" y="28.229492"/>
<use xlink:href="#glyph-0-19" x="158" y="28.229492"/>
<use xlink:href="#glyph-0-20" x="161" y="28.229492"/>
<use xlink:href="#glyph-0-14" x="166" y="28.229492"/>
<use xlink:href="#glyph-0-18" x="172" y="28.229492"/>
</g>
</svg>
