<?xml version="1.0" encoding="UTF-8"?>
<svg xmlns="http://www.w3.org/2000/svg" xmlns:xlink="http://www.w3.org/1999/xlink" width="854" height="480" viewBox="0 0 854 480">
<defs>
<g>
<g id="glyph-0-0">
<path d="M 0.625 -6.117188 L 3.789062 -6.117188 C 3.808594 -6.835938 3.820312 -7.5625 3.828125 -8.304688 L 4.679688 -8.304688 C 4.664062 -7.617188 4.648438 -6.886719 4.628906 -6.117188 L 9.109375 -6.117188 C 9.03125 -3.574219 8.957031 -1.773438 8.886719 -0.71875 C 8.800781 0.402344 8.203125 0.96875 7.089844 0.980469 C 6.554688 0.980469 5.910156 0.96875 5.15625 0.941406 C 5.128906 0.6875 5.082031 0.378906 5.007812 0.015625 L 5.039062 0.015625 C 5.886719 0.09375 6.542969 0.128906 7.011719 0.121094 C 7.644531 0.109375 7.992188 -0.238281 8.054688 -0.921875 C 8.132812 -2.089844 8.191406 -3.554688 8.234375 -5.316406 L 4.609375 -5.316406 C 4.550781 -3.621094 4.28125 -2.34375 3.796875 -1.488281 C 3.285156 -0.539062 2.28125 0.375 0.789062 1.253906 C 0.609375 1.019531 0.414062 0.773438 0.203125 0.511719 C 1.617188 -0.28125 2.546875 -1.082031 2.988281 -1.890625 C 3.445312 -2.621094 3.703125 -3.765625 3.757812 -5.316406 L 0.625 -5.316406 Z "/>
</g>
<g id="glyph-0-1">
<path d="M 0.554688 -6.695312 L 1.542969 -6.695312 C 1.785156 -7.285156 1.980469 -7.828125 2.140625 -8.316406 L 2.960938 -8.082031 C 2.753906 -7.582031 2.554688 -7.121094 2.363281 -6.695312 L 4.316406 -6.695312 L 4.316406 1.078125 L 3.535156 1.078125 L 3.535156 0.316406 L 1.335938 0.316406 L 1.335938 1.148438 L 0.554688 1.148438 L 0.554688 -6.695312 M 4.460938 -4.691406 C 5.074219 -5.664062 5.59375 -6.871094 6.015625 -8.316406 L 6.835938 -8.109375 C 6.671875 -7.617188 6.5 -7.15625 6.328125 -6.722656 L 9.472656 -6.722656 C 9.394531 -3.378906 9.328125 -1.269531 9.277344 -0.40625 C 9.230469 0.617188 8.695312 1.128906 7.664062 1.128906 C 7.074219 1.128906 6.472656 1.109375 5.859375 1.070312 C 5.820312 0.742188 5.769531 0.453125 5.703125 0.199219 L 5.734375 0.199219 C 6.382812 0.292969 6.980469 0.335938 7.519531 0.335938 C 8.113281 0.335938 8.429688 0.0234375 8.476562 -0.601562 C 8.546875 -1.570312 8.601562 -3.367188 8.632812 -5.992188 L 6.015625 -5.992188 C 5.734375 -5.363281 5.4375 -4.808594 5.136719 -4.332031 C 4.960938 -4.453125 4.734375 -4.574219 4.460938 -4.691406 M 1.335938 -0.414062 L 3.535156 -0.414062 L 3.535156 -2.886719 L 1.335938 -2.886719 L 1.335938 -0.414062 M 3.535156 -5.960938 L 1.335938 -5.960938 L 1.335938 -3.589844 L 3.535156 -3.589844 L 3.535156 -5.960938 M 5.320312 -4.027344 L 5.917969 -4.46875 C 6.640625 -3.613281 7.21875 -2.875 7.648438 -2.25 L 6.921875 -1.742188 C 6.460938 -2.5 5.929688 -3.261719 5.320312 -4.027344 Z "/>
</g>
<g id="glyph-0-2">
<path d="M 0.304688 -6.625 L 4.992188 -6.625 C 4.660156 -7.25 4.402344 -7.707031 4.21875 -7.992188 L 4.980469 -8.355469 C 5.164062 -8.074219 5.4375 -7.617188 5.800781 -6.988281 L 5.085938 -6.625 L 9.71875 -6.625 L 9.71875 -5.882812 L 3.792969 -5.882812 C 3.769531 -5.292969 3.746094 -4.785156 3.71875 -4.371094 L 8.4375 -4.371094 C 8.359375 -2.957031 8.273438 -1.730469 8.183594 -0.6875 C 8.113281 0.488281 7.539062 1.078125 6.464844 1.078125 C 5.96875 1.078125 5.308594 1.054688 4.484375 1 C 4.449219 0.753906 4.402344 0.453125 4.335938 0.101562 C 5.164062 0.214844 5.832031 0.269531 6.347656 0.269531 C 6.945312 0.269531 7.28125 -0.0859375 7.351562 -0.796875 C 7.429688 -1.570312 7.5 -2.519531 7.558594 -3.636719 L 3.667969 -3.636719 C 3.484375 -1.488281 2.488281 0.175781 0.683594 1.363281 C 0.507812 1.152344 0.308594 0.933594 0.0859375 0.699219 C 1.804688 -0.433594 2.726562 -1.953125 2.851562 -3.851562 C 2.898438 -4.367188 2.933594 -5.042969 2.964844 -5.882812 L 0.304688 -5.882812 Z "/>
</g>
<g id="glyph-0-3">
<path d="M 1.621094 1.207031 L 0.859375 1.207031 L 0.859375 -6.8125 L 3.742188 -6.8125 C 3.902344 -7.292969 4.058594 -7.796875 4.210938 -8.324219 L 5.046875 -8.089844 C 4.878906 -7.636719 4.714844 -7.207031 4.550781 -6.8125 L 9.121094 -6.8125 L 9.121094 0.0546875 C 9.121094 0.789062 8.753906 1.15625 8.015625 1.15625 C 7.609375 1.15625 7.113281 1.152344 6.53125 1.136719 C 6.5 0.910156 6.453125 0.65625 6.398438 0.375 C 6.957031 0.421875 7.429688 0.445312 7.820312 0.445312 C 8.179688 0.445312 8.359375 0.253906 8.359375 -0.121094 L 8.359375 -6.089844 L 1.621094 -6.089844 L 1.621094 1.207031 M 2.960938 -4.683594 L 7 -4.683594 L 7 -1.253906 L 3.703125 -1.253906 L 3.703125 -0.582031 L 2.960938 -0.582031 L 2.960938 -4.683594 M 6.257812 -3.980469 L 3.703125 -3.980469 L 3.703125 -1.957031 L 6.257812 -1.957031 Z "/>
</g>
<g id="glyph-0-4">
<path d="M 3.601562 -3.335938 L 8.820312 -3.335938 L 8.820312 1.285156 L 8.078125 1.285156 L 8.078125 0.628906 L 4.34375 0.628906 L 4.34375 1.292969 L 3.601562 1.292969 L 3.601562 -3.335938 M 8.078125 -2.660156 L 4.34375 -2.660156 L 4.34375 -0.0429688 L 8.078125 -0.0429688 L 8.078125 -2.660156 M 8.789062 -4.886719 C 9.089844 -4.886719 9.449219 -4.890625 9.875 -4.898438 L 9.734375 -4.164062 L 8.664062 -4.164062 C 7.898438 -4.164062 7.519531 -4.550781 7.519531 -5.328125 L 7.519531 -7.125 L 4.875 -7.125 L 4.875 -6.488281 C 4.875 -5.746094 4.757812 -5.183594 4.53125 -4.800781 C 4.304688 -4.375 3.898438 -3.988281 3.320312 -3.636719 C 3.144531 -3.839844 2.964844 -4.042969 2.78125 -4.253906 C 3.316406 -4.550781 3.679688 -4.867188 3.875 -5.199219 C 4.039062 -5.492188 4.121094 -5.9375 4.121094 -6.539062 L 4.121094 -7.847656 L 8.273438 -7.847656 L 8.273438 -5.394531 C 8.273438 -5.058594 8.445312 -4.886719 8.789062 -4.886719 M 1.679688 -2.808594 C 1.992188 -2.671875 2.257812 -2.570312 2.46875 -2.503906 C 2.21875 -1.535156 1.863281 -0.28125 1.40625 1.253906 L 0.554688 0.953125 C 0.984375 -0.1875 1.359375 -1.441406 1.679688 -2.808594 M 1.085938 -8.0625 C 1.675781 -7.65625 2.300781 -7.1875 2.960938 -6.65625 C 2.75 -6.421875 2.566406 -6.214844 2.402344 -6.039062 C 1.796875 -6.566406 1.199219 -7.054688 0.617188 -7.503906 L 1.085938 -8.0625 M 0.625 -5.492188 C 1.222656 -5.058594 1.789062 -4.613281 2.324219 -4.164062 C 2.121094 -3.949219 1.941406 -3.746094 1.777344 -3.550781 C 1.074219 -4.179688 0.527344 -4.644531 0.136719 -4.9375 Z "/>
</g>
<g id="glyph-0-5">
<path d="M 2.890625 -2.171875 L 6.171875 -2.171875 L 6.171875 -3.53125 L 3.328125 -3.53125 L 3.328125 -4.222656 C 3.726562 -4.917969 4.089844 -5.652344 4.414062 -6.429688 L 3.007812 -6.429688 L 3.007812 -7.113281 L 4.6875 -7.113281 C 4.84375 -7.523438 4.988281 -7.945312 5.125 -8.375 L 5.945312 -8.199219 C 5.808594 -7.832031 5.664062 -7.46875 5.515625 -7.113281 L 9.511719 -7.113281 L 9.511719 -6.429688 L 5.234375 -6.429688 C 4.902344 -5.65625 4.5625 -4.917969 4.210938 -4.214844 L 6.171875 -4.214844 L 6.171875 -5.902344 L 6.953125 -5.902344 L 6.953125 -4.214844 L 9.453125 -4.214844 L 9.453125 -3.53125 L 6.953125 -3.53125 L 6.953125 -2.171875 L 9.726562 -2.171875 L 9.726562 -1.488281 L 6.953125 -1.488281 L 6.953125 0.121094 L 6.171875 0.121094 L 6.171875 -1.488281 L 2.890625 -1.488281 L 2.890625 -2.171875 M 4.140625 0.335938 L 6.140625 0.386719 L 9.875 0.296875 C 9.761719 0.558594 9.65625 0.808594 9.550781 1.050781 L 6.164062 1.089844 L 4.054688 1.039062 C 3.003906 1.027344 2.21875 0.65625 1.699219 -0.0742188 C 1.511719 0.078125 1.128906 0.492188 0.554688 1.175781 L 0.136719 0.347656 C 0.542969 -0.0195312 0.945312 -0.375 1.347656 -0.71875 L 1.347656 -4.125 L 0.234375 -4.125 L 0.234375 -4.839844 L 2.109375 -4.839844 L 2.109375 -0.578125 C 2.585938 0.00390625 3.261719 0.308594 4.140625 0.335938 M 1.335938 -8.128906 C 1.789062 -7.5625 2.21875 -6.980469 2.636719 -6.382812 L 1.945312 -5.894531 C 1.558594 -6.503906 1.148438 -7.109375 0.710938 -7.710938 Z "/>
</g>
<g id="glyph-0-6">
<path d="M 3.078125 0.542969 C 4.300781 0.101562 5.359375 -0.40625 6.253906 -0.984375 C 6.023438 -1.574219 5.839844 -2.273438 5.707031 -3.082031 L 3.625 -2.789062 L 3.507812 -3.492188 L 5.609375 -3.785156 C 5.554688 -4.238281 5.515625 -4.726562 5.488281 -5.242188 L 3.71875 -5.042969 L 3.601562 -5.746094 L 5.449219 -5.953125 C 5.414062 -6.628906 5.382812 -7.40625 5.351562 -8.285156 L 6.152344 -8.285156 C 6.167969 -7.445312 6.191406 -6.699219 6.214844 -6.039062 L 9.484375 -6.410156 L 9.570312 -5.71875 L 6.246094 -5.332031 C 6.269531 -4.816406 6.304688 -4.335938 6.359375 -3.886719 L 9.726562 -4.359375 L 9.8125 -3.667969 L 6.449219 -3.1875 C 6.5625 -2.515625 6.710938 -1.929688 6.898438 -1.429688 C 7.589844 -1.953125 8.164062 -2.519531 8.625 -3.140625 L 9.257812 -2.660156 C 8.671875 -1.953125 7.992188 -1.316406 7.21875 -0.742188 C 7.46875 -0.292969 7.765625 0.0507812 8.117188 0.289062 C 8.542969 0.542969 8.820312 0.410156 8.945312 -0.101562 C 9.03125 -0.519531 9.097656 -0.980469 9.148438 -1.488281 C 9.449219 -1.359375 9.699219 -1.265625 9.902344 -1.207031 C 9.792969 -0.503906 9.679688 0.0273438 9.570312 0.386719 C 9.382812 0.9375 9.058594 1.214844 8.601562 1.214844 C 8.128906 1.214844 7.6875 1.019531 7.285156 0.628906 C 7.023438 0.378906 6.785156 0.0664062 6.578125 -0.304688 C 5.683594 0.277344 4.679688 0.78125 3.5625 1.207031 C 3.445312 1.023438 3.285156 0.800781 3.078125 0.542969 M 1.40625 -2.40625 C 1.984375 -2.492188 2.667969 -2.601562 3.457031 -2.738281 C 3.417969 -2.5 3.390625 -2.246094 3.367188 -1.988281 C 2.28125 -1.816406 1.328125 -1.664062 0.507812 -1.527344 L 0.351562 -2.261719 C 0.804688 -2.746094 1.300781 -3.4375 1.839844 -4.335938 C 1.3125 -4.304688 0.816406 -4.269531 0.351562 -4.222656 L 0.164062 -4.886719 C 0.769531 -5.714844 1.394531 -6.875 2.03125 -8.363281 L 2.773438 -8.070312 C 2.101562 -6.75 1.527344 -5.707031 1.046875 -4.945312 C 1.433594 -4.960938 1.824219 -4.972656 2.222656 -4.992188 C 2.445312 -5.390625 2.679688 -5.824219 2.921875 -6.292969 L 3.640625 -5.933594 C 2.847656 -4.558594 2.101562 -3.382812 1.40625 -2.40625 M 0.164062 -0.152344 C 1.3125 -0.398438 2.46875 -0.667969 3.640625 -0.960938 C 3.625 -0.703125 3.613281 -0.453125 3.613281 -0.21875 C 2.527344 0.0351562 1.449219 0.304688 0.382812 0.589844 L 0.164062 -0.152344 M 6.972656 -7.769531 L 7.390625 -8.257812 C 7.855469 -7.964844 8.347656 -7.613281 8.875 -7.203125 L 8.40625 -6.636719 C 7.867188 -7.097656 7.390625 -7.476562 6.972656 -7.769531 Z "/>
</g>
<g id="glyph-0-7">
<path d="M 3.015625 -1.210938 L 2.191406 1.390625 L 1.507812 1.390625 L 2.109375 -1.210938 Z "/>
</g>
<g id="glyph-0-8">
<path d="M 0.148438 0.0429688 L 1.492188 0.0429688 L 1.492188 -7.730469 L 8.496094 -7.730469 L 8.496094 0.0429688 L 9.824219 0.0429688 L 9.824219 0.765625 L 0.148438 0.765625 L 0.148438 0.0429688 M 2.273438 0.0429688 L 7.714844 0.0429688 L 7.714844 -1.871094 L 2.273438 -1.871094 L 2.273438 0.0429688 M 2.273438 -2.554688 L 7.714844 -2.554688 L 7.714844 -4.4375 L 2.273438 -4.4375 L 2.273438 -2.554688 M 7.714844 -7.007812 L 2.273438 -7.007812 L 2.273438 -5.121094 L 7.714844 -5.121094 Z "/>
</g>
<g id="glyph-0-9">
<path d="M 0.148438 -1.597656 L 1.492188 -1.597656 L 1.492188 -7.875 L 8.496094 -7.875 L 8.496094 -1.597656 L 9.824219 -1.597656 L 9.824219 -0.894531 L 0.148438 -0.894531 L 0.148438 -1.597656 M 2.246094 -1.597656 L 7.742188 -1.597656 L 7.742188 -2.515625 L 2.246094 -2.515625 L 2.246094 -1.597656 M 7.742188 -7.171875 L 2.246094 -7.171875 L 2.246094 -6.273438 L 7.742188 -6.273438 L 7.742188 -7.171875 M 2.246094 -4.722656 L 7.742188 -4.722656 L 7.742188 -5.621094 L 2.246094 -5.621094 L 2.246094 -4.722656 M 2.246094 -3.167969 L 7.742188 -3.167969 L 7.742188 -4.066406 L 2.246094 -4.066406 L 2.246094 -3.167969 M 5.8125 0.015625 L 6.21875 -0.628906 C 7.359375 -0.285156 8.515625 0.105469 9.6875 0.542969 L 9.304688 1.3125 C 8.421875 0.921875 7.257812 0.488281 5.8125 0.015625 M 3.625 -0.6875 L 4.09375 -0.0429688 C 2.945312 0.484375 1.789062 0.953125 0.625 1.363281 C 0.527344 1.148438 0.40625 0.902344 0.265625 0.628906 C 1.265625 0.332031 2.386719 -0.109375 3.625 -0.6875 Z "/>
</g>
<g id="glyph-0-10">
<path d="M 2.898438 1.273438 L 2.128906 1.273438 L 2.128906 -3.78125 C 1.65625 -3.230469 1.136719 -2.699219 0.566406 -2.191406 C 0.429688 -2.421875 0.273438 -2.65625 0.0976562 -2.90625 C 1.355469 -3.957031 2.335938 -5.121094 3.042969 -6.402344 L 0.371094 -6.402344 L 0.371094 -7.125 L 3.40625 -7.125 C 3.59375 -7.53125 3.753906 -7.949219 3.886719 -8.375 L 4.695312 -8.1875 C 4.566406 -7.828125 4.421875 -7.472656 4.265625 -7.125 L 9.785156 -7.125 L 9.785156 -6.402344 L 3.914062 -6.402344 C 3.714844 -6.015625 3.492188 -5.644531 3.25 -5.277344 L 8.601562 -5.277344 L 8.601562 -0.0625 C 8.601562 0.742188 8.210938 1.148438 7.421875 1.148438 C 7.078125 1.152344 6.554688 1.15625 5.851562 1.15625 C 5.816406 0.9375 5.769531 0.667969 5.703125 0.355469 C 6.300781 0.402344 6.785156 0.425781 7.148438 0.425781 C 7.597656 0.425781 7.820312 0.203125 7.820312 -0.238281 L 7.820312 -0.933594 L 2.898438 -0.933594 L 2.898438 1.273438 M 2.898438 -1.597656 L 7.820312 -1.597656 L 7.820312 -2.769531 L 2.898438 -2.769531 L 2.898438 -1.597656 M 7.820312 -4.59375 L 2.898438 -4.59375 L 2.898438 -3.433594 L 7.820312 -3.433594 Z "/>
</g>
<g id="glyph-0-11">
<path d="M 5.097656 -3.871094 C 5.007812 -1.800781 4.335938 -0.078125 3.085938 1.304688 C 2.898438 1.109375 2.6875 0.925781 2.460938 0.757812 C 3.308594 -0.15625 3.859375 -1.144531 4.109375 -2.210938 C 4.34375 -3.148438 4.460938 -4.738281 4.453125 -6.976562 L 3.574219 -6.976562 L 3.574219 -7.671875 L 8.445312 -7.671875 L 8.445312 -6.9375 L 7.5 -4.976562 L 9.121094 -4.976562 L 9.121094 -4.273438 C 8.808594 -3.082031 8.304688 -2.023438 7.609375 -1.097656 C 8.265625 -0.414062 9.027344 0.117188 9.890625 0.503906 C 9.695312 0.683594 9.480469 0.925781 9.238281 1.226562 C 8.417969 0.738281 7.703125 0.167969 7.089844 -0.484375 C 6.433594 0.21875 5.644531 0.839844 4.726562 1.371094 C 4.542969 1.132812 4.363281 0.921875 4.179688 0.746094 C 5.136719 0.207031 5.9375 -0.40625 6.582031 -1.089844 C 5.949219 -1.902344 5.457031 -2.832031 5.097656 -3.871094 M 0.59375 -7.359375 L 3.210938 -7.359375 L 3.210938 -1.34375 L 1.308594 -1.34375 L 1.308594 -0.679688 L 0.59375 -0.679688 L 0.59375 -7.359375 M 6.6875 -4.996094 L 7.625 -6.976562 L 5.195312 -6.976562 C 5.195312 -6.484375 5.1875 -6.019531 5.175781 -5.589844 C 5.632812 -4.015625 6.269531 -2.714844 7.089844 -1.683594 C 7.6875 -2.464844 8.101562 -3.332031 8.328125 -4.28125 L 6.6875 -4.28125 L 6.6875 -4.996094 M 2.5 -2.007812 L 2.5 -6.695312 L 1.308594 -6.695312 L 1.308594 -2.007812 Z "/>
</g>
<g id="glyph-0-12">
<path d="M 1.679688 -3.246094 L 5.722656 -3.246094 C 5.632812 -1.945312 5.546875 -0.992188 5.46875 -0.386719 C 5.378906 0.617188 4.824219 1.117188 3.808594 1.117188 C 3.210938 1.117188 2.535156 1.101562 1.789062 1.070312 C 1.742188 0.78125 1.671875 0.484375 1.582031 0.171875 C 2.285156 0.242188 2.976562 0.277344 3.664062 0.277344 C 4.304688 0.277344 4.652344 -0.0429688 4.695312 -0.6875 C 4.75 -1.085938 4.804688 -1.695312 4.863281 -2.515625 L 0.722656 -2.515625 L 1.296875 -5.503906 L 4.8125 -5.503906 L 4.8125 -7.132812 L 0.722656 -7.132812 L 0.722656 -7.855469 L 5.617188 -7.855469 L 5.617188 -4.410156 L 4.8125 -4.410156 L 4.8125 -4.78125 L 1.960938 -4.78125 L 1.679688 -3.246094 M 8.085938 -8.265625 L 8.90625 -8.265625 L 8.90625 1.292969 L 8.085938 1.292969 Z "/>
</g>
<g id="glyph-0-13">
<path d="M 4.179688 0.757812 C 4.992188 0.199219 5.707031 -0.4375 6.320312 -1.15625 C 5.902344 -2.308594 5.65625 -3.871094 5.578125 -5.84375 L 0.3125 -5.84375 L 0.3125 -6.566406 L 5.546875 -6.566406 C 5.519531 -7.109375 5.5 -7.675781 5.476562 -8.265625 L 6.28125 -8.265625 C 6.28125 -7.675781 6.292969 -7.109375 6.308594 -6.566406 L 9.765625 -6.566406 L 9.765625 -5.84375 L 6.324219 -5.84375 C 6.367188 -4.226562 6.546875 -2.902344 6.871094 -1.871094 C 7.5 -2.753906 7.996094 -3.742188 8.359375 -4.839844 L 9.132812 -4.515625 C 8.601562 -3.191406 7.953125 -2.03125 7.191406 -1.03125 C 7.484375 -0.40625 7.835938 0.0390625 8.242188 0.296875 C 8.632812 0.550781 8.875 0.445312 8.964844 -0.0234375 C 9.0625 -0.511719 9.136719 -1.015625 9.1875 -1.527344 C 9.457031 -1.410156 9.707031 -1.316406 9.941406 -1.246094 C 9.816406 -0.496094 9.699219 0.0703125 9.589844 0.453125 C 9.453125 0.960938 9.15625 1.222656 8.703125 1.234375 C 8.324219 1.234375 7.957031 1.097656 7.597656 0.824219 C 7.234375 0.519531 6.917969 0.117188 6.65625 -0.382812 C 6.078125 0.273438 5.441406 0.84375 4.746094 1.332031 C 4.597656 1.164062 4.40625 0.972656 4.179688 0.757812 M 1.007812 -4.898438 L 4.523438 -4.898438 L 4.523438 -1.480469 L 3.820312 -1.480469 L 3.820312 -1.929688 L 1.710938 -1.929688 L 1.710938 -1.246094 L 1.007812 -1.246094 L 1.007812 -4.898438 M 0.164062 -0.140625 C 1.410156 -0.304688 3.03125 -0.558594 5.03125 -0.902344 C 5.035156 -0.625 5.046875 -0.375 5.058594 -0.160156 C 3.59375 0.0585938 2.027344 0.328125 0.359375 0.640625 L 0.164062 -0.140625 M 3.820312 -4.214844 L 1.710938 -4.214844 L 1.710938 -2.613281 L 3.820312 -2.613281 L 3.820312 -4.214844 M 7.023438 -7.796875 L 7.429688 -8.304688 C 7.960938 -8 8.492188 -7.65625 9.03125 -7.28125 L 8.5625 -6.695312 C 8.078125 -7.070312 7.5625 -7.441406 7.023438 -7.796875 Z "/>
</g>
<g id="glyph-0-14">
<path d="M 6.835938 -8.296875 L 7.597656 -8.296875 L 7.597656 -6.5 L 9.667969 -6.5 L 9.667969 -5.757812 L 7.597656 -5.757812 L 7.597656 -4.078125 L 9.433594 -4.078125 L 9.433594 -3.335938 L 7.597656 -3.335938 L 7.597656 -1.636719 L 9.835938 -1.636719 L 9.835938 -0.894531 L 7.597656 -0.894531 L 7.597656 1.3125 L 6.835938 1.3125 L 6.835938 -8.296875 M 2.882812 -1.636719 L 4.902344 -1.636719 L 4.902344 -3.335938 L 3.359375 -3.335938 L 3.359375 -4.078125 L 4.902344 -4.078125 L 4.902344 -5.757812 L 3.378906 -5.757812 L 3.378906 -6.5 L 4.902344 -6.5 L 4.902344 -8.296875 L 5.664062 -8.296875 L 5.664062 1.3125 L 4.902344 1.3125 L 4.902344 -0.894531 L 2.882812 -0.894531 L 2.882812 -1.636719 M 0.203125 -6.507812 L 1.367188 -6.507812 L 1.367188 -8.304688 L 2.109375 -8.304688 L 2.109375 -6.507812 L 3.078125 -6.507812 L 3.078125 -5.824219 L 2.109375 -5.824219 L 2.109375 -4.003906 C 2.421875 -4.164062 2.726562 -4.324219 3.027344 -4.488281 C 3.046875 -4.207031 3.074219 -3.945312 3.105469 -3.707031 C 2.785156 -3.542969 2.453125 -3.371094 2.109375 -3.195312 L 2.109375 0.210938 C 2.109375 0.875 1.753906 1.210938 1.046875 1.214844 C 0.851562 1.222656 0.582031 1.222656 0.242188 1.214844 C 0.21875 0.957031 0.175781 0.683594 0.117188 0.40625 C 0.476562 0.429688 0.753906 0.445312 0.957031 0.445312 C 1.230469 0.445312 1.367188 0.292969 1.367188 -0.00390625 L 1.367188 -2.808594 C 1.003906 -2.617188 0.625 -2.421875 0.234375 -2.210938 L 0.136719 -3.070312 C 0.554688 -3.257812 0.96875 -3.445312 1.367188 -3.636719 L 1.367188 -5.824219 L 0.203125 -5.824219 Z "/>
</g>
<g id="glyph-0-15">
<path d="M 3.320312 -2.972656 C 4.210938 -2.707031 5.070312 -2.445312 5.898438 -2.191406 L 5.898438 -4.105469 L 2.273438 -4.105469 C 2.28125 -1.945312 1.785156 -0.121094 0.789062 1.363281 C 0.601562 1.128906 0.398438 0.898438 0.175781 0.667969 C 1.023438 -0.554688 1.445312 -2.097656 1.445312 -3.960938 L 1.445312 -7.542969 C 3.976562 -7.636719 6.46875 -7.789062 8.914062 -8.003906 L 9.03125 -7.242188 C 6.867188 -7.078125 4.613281 -6.945312 2.273438 -6.839844 L 2.273438 -4.839844 L 9.648438 -4.839844 L 9.648438 -4.105469 L 6.726562 -4.105469 L 6.726562 -1.933594 C 7.71875 -1.625 8.660156 -1.324219 9.550781 -1.03125 L 9.25 -0.230469 C 8.394531 -0.53125 7.554688 -0.820312 6.726562 -1.09375 L 6.726562 1.304688 L 5.898438 1.304688 L 5.898438 -1.367188 C 4.914062 -1.683594 3.953125 -1.980469 3.007812 -2.261719 Z "/>
</g>
<g id="glyph-0-16">
<path d="M 3.066406 0.238281 L 6.230469 0.238281 L 6.230469 -2.378906 L 3.710938 -2.378906 L 3.710938 -3.0625 L 6.230469 -3.0625 L 6.230469 -5.425781 L 4.648438 -5.425781 C 4.40625 -4.804688 4.128906 -4.191406 3.808594 -3.578125 C 3.527344 -3.808594 3.3125 -3.957031 3.15625 -4.027344 C 3.804688 -5.207031 4.261719 -6.410156 4.523438 -7.640625 L 5.292969 -7.4375 C 5.183594 -6.988281 5.050781 -6.542969 4.902344 -6.109375 L 6.230469 -6.109375 L 6.230469 -8.257812 L 7 -8.257812 L 7 -6.109375 L 9.570312 -6.109375 L 9.570312 -5.425781 L 7 -5.425781 L 7 -3.0625 L 9.375 -3.0625 L 9.375 -2.378906 L 7 -2.378906 L 7 0.238281 L 9.875 0.238281 L 9.875 0.921875 L 3.066406 0.921875 L 3.066406 0.238281 M 1.542969 -8.265625 L 2.296875 -8.265625 L 2.296875 -6.390625 L 2.714844 -6.625 C 3.054688 -6.097656 3.34375 -5.605469 3.585938 -5.140625 L 2.976562 -4.75 C 2.75 -5.234375 2.523438 -5.660156 2.296875 -6.03125 L 2.296875 1.363281 L 1.542969 1.363281 L 1.542969 -8.265625 M 0.632812 -6.058594 L 1.28125 -5.914062 C 1.164062 -5.125 1 -4.289062 0.789062 -3.402344 C 0.613281 -3.46875 0.390625 -3.53125 0.117188 -3.589844 C 0.3125 -4.296875 0.484375 -5.121094 0.632812 -6.058594 Z "/>
</g>
<g id="glyph-0-17">
<path d="M 2.871094 -4.105469 L 5.46875 -4.105469 L 5.46875 -5.238281 L 2.265625 -5.238281 L 2.265625 -5.921875 L 5.46875 -5.921875 L 5.46875 -6.988281 L 6.25 -6.988281 L 6.25 -5.921875 L 9.570312 -5.921875 L 9.570312 -5.238281 L 6.25 -5.238281 L 6.25 -4.105469 L 8.875 -4.105469 L 8.875 -0.667969 L 8.117188 -0.667969 L 8.117188 -3.421875 L 3.632812 -3.421875 L 3.632812 -0.667969 L 2.871094 -0.667969 L 2.871094 -4.105469 M 1.113281 -7.710938 C 4.269531 -7.722656 7.019531 -7.859375 9.355469 -8.121094 L 9.628906 -7.359375 C 7.179688 -7.183594 4.601562 -7.070312 1.894531 -7.027344 L 1.894531 -4.027344 C 1.894531 -1.527344 1.476562 0.269531 0.632812 1.363281 C 0.4375 1.132812 0.242188 0.921875 0.046875 0.726562 C 0.757812 -0.144531 1.113281 -1.707031 1.113281 -3.960938 L 1.113281 -7.710938 M 6.25 -2.914062 C 6.261719 -2.070312 6.21875 -1.457031 6.125 -1.078125 C 7.3125 -0.558594 8.535156 0.0117188 9.785156 0.628906 L 9.367188 1.351562 C 8.117188 0.664062 6.953125 0.0703125 5.878906 -0.425781 C 5.371094 0.441406 4.109375 1.042969 2.101562 1.382812 C 1.988281 1.171875 1.847656 0.9375 1.679688 0.667969 C 3.703125 0.355469 4.890625 -0.144531 5.234375 -0.835938 C 5.417969 -1.132812 5.5 -1.828125 5.488281 -2.914062 Z "/>
</g>
</g>
</defs>
<g fill="rgb(100%, 100%, 100%)" fill-opacity="1">
<use xlink:href="#glyph-0-0" x="30" y="30.581055"/>
<use xlink:href="#glyph-0-1" x="40" y="30.581055"/>
<use xlink:href="#glyph-0-2" x="50" y="30.581055"/>
<use xlink:href="#glyph-0-3" x="60" y="30.581055"/>
<use xlink:href="#glyph-0-4" x="70" y="30.581055"/>
<use xlink:href="#glyph-0-5" x="80" y="30.581055"/>
<use xlink:href="#glyph-0-6" x="90" y="30.581055"/>
<use xlink:href="#glyph-0-7" x="100" y="30.581055"/>
<use xlink:href="#glyph-0-8" x="110" y="30.581055"/>
<use xlink:href="#glyph-0-9" x="120" y="30.581055"/>
<use xlink:href="#glyph-0-10" x="130" y="30.581055"/>
<use xlink:href="#glyph-0-11" x="140" y="30.581055"/>
<use xlink:href="#glyph-0-12" x="150" y="30.581055"/>
<use xlink:href="#glyph-0-13" x="160" y="30.581055"/>
<use xlink:href="#glyph-0-14" x="170" y="30.581055"/>
<use xlink:href="#glyph-0-15" x="180" y="30.581055"/>
<use xlink:href="#glyph-0-16" x="190" y="30.581055"/>
<use xlink:href="#glyph-0-17" x="200" y="30.581055"/>
</g>
</svg>
