<?xml version="1.0" encoding="UTF-8"?>
<svg xmlns="http://www.w3.org/2000/svg" xmlns:xlink="http://www.w3.org/1999/xlink" width="854" height="480" viewBox="0 0 854 480">
<defs>
<g>
<g id="glyph-0-0">
<path d="M 4.308594 1.933594 L 3.566406 1.933594 L 3.566406 -0.707031 L 3.550781 -0.707031 C 3.257812 -0.167969 2.785156 0.0976562 2.128906 0.0976562 C 1.601562 0.0976562 1.179688 -0.0898438 0.859375 -0.460938 C 0.542969 -0.835938 0.382812 -1.347656 0.382812 -2 C 0.382812 -2.699219 0.558594 -3.253906 0.90625 -3.671875 C 1.257812 -4.089844 1.726562 -4.296875 2.3125 -4.296875 C 2.878906 -4.296875 3.292969 -4.074219 3.550781 -3.628906 L 3.566406 -3.628906 L 3.566406 -4.199219 L 4.308594 -4.199219 L 4.308594 1.933594 M 3.566406 -2.484375 C 3.570312 -2.816406 3.460938 -3.097656 3.25 -3.332031 C 3.035156 -3.566406 2.753906 -3.683594 2.410156 -3.683594 C 2.015625 -3.683594 1.707031 -3.535156 1.480469 -3.242188 C 1.253906 -2.949219 1.144531 -2.542969 1.144531 -2.019531 C 1.144531 -1.550781 1.25 -1.179688 1.46875 -0.914062 C 1.683594 -0.648438 1.96875 -0.515625 2.320312 -0.515625 C 2.707031 -0.515625 3.007812 -0.648438 3.234375 -0.914062 C 3.457031 -1.179688 3.570312 -1.507812 3.566406 -1.902344 Z "/>
</g>
<g id="glyph-0-1">
<path d="M 3.484375 1.984375 L 0 1.984375 L 0 1.496094 L 3.484375 1.496094 Z "/>
</g>
<g id="glyph-0-2">
<path d="M 2.164062 0 L 2.164062 -5.03125 C 2.046875 -4.914062 1.851562 -4.785156 1.574219 -4.640625 C 1.296875 -4.496094 1.039062 -4.394531 0.804688 -4.335938 L 0.804688 -5.066406 C 1.117188 -5.152344 1.449219 -5.289062 1.804688 -5.476562 C 2.160156 -5.667969 2.429688 -5.84375 2.621094 -6.011719 L 2.902344 -6.011719 L 2.902344 0 Z "/>
</g>
<g id="glyph-0-3">
<path d="M 1.347656 -0.945312 L 0.699219 1.078125 L 0.160156 1.078125 L 0.628906 -0.945312 Z "/>
</g>
<g id="glyph-0-4">
</g>
<g id="glyph-0-5">
<path d="M 3.238281 -4.339844 C 3.238281 -4.65625 3.140625 -4.90625 2.9375 -5.085938 C 2.738281 -5.269531 2.46875 -5.359375 2.121094 -5.359375 C 1.878906 -5.359375 1.632812 -5.296875 1.386719 -5.171875 C 1.136719 -5.046875 0.90625 -4.871094 0.691406 -4.640625 L 0.691406 -5.363281 C 0.882812 -5.5625 1.101562 -5.714844 1.347656 -5.820312 C 1.589844 -5.929688 1.878906 -5.980469 2.207031 -5.980469 C 2.738281 -5.980469 3.164062 -5.839844 3.488281 -5.554688 C 3.8125 -5.269531 3.976562 -4.882812 3.976562 -4.398438 C 3.976562 -3.964844 3.875 -3.589844 3.679688 -3.273438 C 3.480469 -2.957031 3.140625 -2.632812 2.660156 -2.300781 C 2.167969 -1.960938 1.839844 -1.71875 1.671875 -1.570312 C 1.507812 -1.425781 1.390625 -1.285156 1.324219 -1.152344 C 1.257812 -1.015625 1.226562 -0.851562 1.226562 -0.660156 L 4.152344 -0.660156 L 4.152344 0 L 0.453125 0 L 0.453125 -0.292969 C 0.453125 -0.632812 0.5 -0.917969 0.589844 -1.15625 C 0.683594 -1.394531 0.835938 -1.625 1.046875 -1.847656 C 1.261719 -2.070312 1.59375 -2.339844 2.042969 -2.65625 C 2.503906 -2.980469 2.820312 -3.261719 2.988281 -3.507812 C 3.15625 -3.75 3.238281 -4.027344 3.238281 -4.339844 Z "/>
</g>
<g id="glyph-0-6">
<path d="M 1.953125 -4.292969 C 2.085938 -4.292969 2.203125 -4.246094 2.296875 -4.152344 C 2.394531 -4.058594 2.441406 -3.945312 2.441406 -3.8125 C 2.441406 -3.679688 2.394531 -3.566406 2.300781 -3.472656 C 2.207031 -3.378906 2.089844 -3.332031 1.953125 -3.332031 C 1.8125 -3.332031 1.695312 -3.378906 1.601562 -3.472656 C 1.507812 -3.566406 1.460938 -3.679688 1.460938 -3.8125 C 1.460938 -3.945312 1.511719 -4.058594 1.605469 -4.152344 C 1.703125 -4.246094 1.816406 -4.292969 1.953125 -4.292969 M 1.953125 -0.871094 C 2.085938 -0.871094 2.203125 -0.824219 2.296875 -0.730469 C 2.394531 -0.636719 2.441406 -0.523438 2.441406 -0.386719 C 2.441406 -0.25 2.394531 -0.136719 2.296875 -0.0429688 C 2.203125 0.046875 2.085938 0.09375 1.953125 0.09375 C 1.816406 0.09375 1.703125 0.046875 1.605469 -0.0429688 C 1.511719 -0.136719 1.460938 -0.25 1.460938 -0.386719 C 1.460938 -0.523438 1.511719 -0.636719 1.605469 -0.730469 C 1.703125 -0.824219 1.816406 -0.871094 1.953125 -0.871094 Z "/>
</g>
<g id="glyph-0-7">
<path d="M 0.492188 -5.464844 L 3.296875 -5.464844 L 3.296875 -6.4375 L 3.925781 -6.4375 L 3.925781 -5.464844 L 6.738281 -5.464844 L 6.738281 -1.195312 L 3.925781 -1.195312 L 3.925781 -0.308594 C 3.925781 0 4.089844 0.15625 4.414062 0.15625 L 6.191406 0.15625 C 6.535156 0.15625 6.746094 0.0429688 6.820312 -0.1875 C 6.902344 -0.433594 6.960938 -0.792969 6.996094 -1.257812 C 7.140625 -1.191406 7.351562 -1.113281 7.625 -1.023438 C 7.566406 -0.617188 7.496094 -0.269531 7.421875 0.0195312 C 7.292969 0.496094 6.949219 0.734375 6.386719 0.734375 L 4.367188 0.734375 C 3.652344 0.734375 3.296875 0.382812 3.296875 -0.316406 L 3.296875 -1.195312 L 1.125 -1.195312 L 1.125 -0.671875 L 0.492188 -0.671875 L 0.492188 -5.464844 M 6.105469 -1.765625 L 6.105469 -3.066406 L 3.925781 -3.066406 L 3.925781 -1.765625 L 6.105469 -1.765625 M 1.125 -1.765625 L 3.296875 -1.765625 L 3.296875 -3.066406 L 1.125 -3.066406 L 1.125 -1.765625 M 6.105469 -4.894531 L 3.925781 -4.894531 L 3.925781 -3.605469 L 6.105469 -3.605469 L 6.105469 -4.894531 M 1.125 -3.605469 L 3.296875 -3.605469 L 3.296875 -4.894531 L 1.125 -4.894531 Z "/>
</g>
<g id="glyph-0-8">
<path d="M 2.644531 -4.257812 L 7.574219 -4.257812 L 7.574219 -3.726562 L 6.753906 -3.726562 L 6.753906 -0.140625 C 6.753906 0.53125 6.421875 0.871094 5.765625 0.871094 L 4.6875 0.871094 C 4.664062 0.71875 4.621094 0.507812 4.550781 0.238281 C 4.949219 0.273438 5.304688 0.292969 5.613281 0.292969 C 5.976562 0.292969 6.160156 0.0976562 6.160156 -0.292969 L 6.160156 -3.726562 L 2.644531 -3.726562 L 2.644531 -4.257812 M 2.855469 -2.941406 L 5.285156 -2.941406 L 5.285156 -0.65625 L 3.417969 -0.65625 L 3.417969 -0.253906 L 2.855469 -0.253906 L 2.855469 -2.941406 M 0.265625 -5.746094 L 2.398438 -5.746094 L 2.398438 -6.476562 L 2.992188 -6.476562 L 2.992188 -5.746094 L 4.875 -5.746094 L 4.875 -6.476562 L 5.46875 -6.476562 L 5.46875 -5.746094 L 7.625 -5.746094 L 7.625 -5.199219 L 5.46875 -5.199219 L 5.46875 -4.652344 L 4.875 -4.652344 L 4.875 -5.199219 L 2.992188 -5.199219 L 2.992188 -4.691406 L 2.398438 -4.691406 L 2.398438 -5.199219 L 0.265625 -5.199219 L 0.265625 -5.746094 M 0.0820312 -2.007812 C 0.84375 -2.796875 1.4375 -3.6875 1.867188 -4.675781 L 2.4375 -4.445312 C 2.238281 -4.050781 2.035156 -3.679688 1.832031 -3.335938 L 1.832031 0.96875 L 1.238281 0.96875 L 1.238281 -2.4375 C 0.96875 -2.070312 0.695312 -1.75 0.417969 -1.46875 C 0.320312 -1.632812 0.210938 -1.8125 0.0820312 -2.007812 M 4.722656 -1.171875 L 4.722656 -2.425781 L 3.417969 -2.425781 L 3.417969 -1.171875 Z "/>
</g>
<g id="glyph-0-9">
<path d="M 0.136719 0.339844 L 3.621094 0.339844 L 3.621094 -0.09375 L 0.578125 -0.09375 L 0.578125 -0.488281 L 3.621094 -0.488281 L 3.621094 -0.921875 L 1.816406 -0.921875 L 1.816406 -0.726562 L 1.296875 -0.726562 L 1.296875 -3.058594 L 6.5 -3.058594 L 6.5 -0.726562 L 5.984375 -0.726562 L 5.984375 -0.921875 L 4.15625 -0.921875 L 4.15625 -0.488281 L 7.207031 -0.488281 L 7.207031 -0.09375 L 4.15625 -0.09375 L 4.15625 0.339844 L 7.640625 0.339844 L 7.640625 0.75 L 0.136719 0.75 L 0.136719 0.339844 M 1.359375 -6.164062 L 6.449219 -6.164062 L 6.449219 -3.992188 L 5.933594 -3.992188 L 5.933594 -4.195312 L 1.875 -4.195312 L 1.875 -3.992188 L 1.359375 -3.992188 L 1.359375 -6.164062 M 0.199219 -3.832031 L 7.609375 -3.832031 L 7.609375 -3.421875 L 0.199219 -3.421875 L 0.199219 -3.832031 M 1.875 -4.589844 L 5.933594 -4.589844 L 5.933594 -5 L 1.875 -5 L 1.875 -4.589844 M 5.933594 -5.769531 L 1.875 -5.769531 L 1.875 -5.367188 L 5.933594 -5.367188 L 5.933594 -5.769531 M 4.15625 -1.316406 L 5.984375 -1.316406 L 5.984375 -1.8125 L 4.15625 -1.8125 L 4.15625 -1.316406 M 1.816406 -1.316406 L 3.621094 -1.316406 L 3.621094 -1.8125 L 1.816406 -1.8125 L 1.816406 -1.316406 M 5.984375 -2.660156 L 4.15625 -2.660156 L 4.15625 -2.175781 L 5.984375 -2.175781 L 5.984375 -2.660156 M 1.816406 -2.175781 L 3.621094 -2.175781 L 3.621094 -2.660156 L 1.816406 -2.660156 Z "/>
</g>
<g id="glyph-0-10">
<path d="M 2.347656 -0.941406 L 1.707031 1.082031 L 1.171875 1.082031 L 1.640625 -0.941406 Z "/>
</g>
<g id="glyph-0-11">
<path d="M 0.152344 -1.105469 L 3.59375 -1.105469 L 3.59375 -1.964844 L 1.488281 -1.964844 L 1.488281 -1.605469 L 0.910156 -1.605469 L 0.910156 -5.289062 L 2.488281 -5.289062 C 2.246094 -5.574219 1.980469 -5.863281 1.703125 -6.164062 L 2.132812 -6.519531 C 2.507812 -6.160156 2.839844 -5.828125 3.121094 -5.527344 L 2.839844 -5.289062 L 4.621094 -5.289062 C 4.898438 -5.660156 5.183594 -6.0625 5.46875 -6.496094 L 6.074219 -6.171875 C 5.816406 -5.855469 5.5625 -5.5625 5.320312 -5.289062 L 6.875 -5.289062 L 6.875 -1.605469 L 6.296875 -1.605469 L 6.296875 -1.964844 L 4.183594 -1.964844 L 4.183594 -1.105469 L 7.625 -1.105469 L 7.625 -0.558594 L 4.183594 -0.558594 L 4.183594 1.042969 L 3.59375 1.042969 L 3.59375 -0.558594 L 0.152344 -0.558594 L 0.152344 -1.105469 M 4.183594 -2.496094 L 6.296875 -2.496094 L 6.296875 -3.375 L 4.183594 -3.375 L 4.183594 -2.496094 M 1.488281 -2.496094 L 3.59375 -2.496094 L 3.59375 -3.375 L 1.488281 -3.375 L 1.488281 -2.496094 M 6.296875 -4.757812 L 4.183594 -4.757812 L 4.183594 -3.890625 L 6.296875 -3.890625 L 6.296875 -4.757812 M 1.488281 -3.890625 L 3.59375 -3.890625 L 3.59375 -4.757812 L 1.488281 -4.757812 Z "/>
</g>
<g id="glyph-0-12">
<path d="M 2.171875 0.0703125 L 5.136719 0.0703125 C 5.503906 -0.902344 5.925781 -2.292969 6.402344 -4.097656 L 7.085938 -3.890625 C 6.78125 -2.953125 6.34375 -1.632812 5.78125 0.0703125 L 7.679688 0.0703125 L 7.679688 0.632812 L 2.171875 0.632812 L 2.171875 0.0703125 M 0.0976562 -2.785156 C 0.824219 -3.878906 1.371094 -5.105469 1.738281 -6.46875 L 2.386719 -6.308594 C 2.175781 -5.664062 1.949219 -5.066406 1.707031 -4.507812 L 1.707031 1.035156 L 1.140625 1.035156 L 1.140625 -3.320312 C 0.902344 -2.875 0.652344 -2.460938 0.386719 -2.085938 C 0.316406 -2.277344 0.21875 -2.511719 0.0976562 -2.785156 M 2.332031 -5.09375 L 5.007812 -5.09375 C 4.785156 -5.472656 4.535156 -5.824219 4.261719 -6.148438 L 4.777344 -6.503906 C 5 -6.246094 5.277344 -5.898438 5.605469 -5.464844 L 5.042969 -5.09375 L 7.542969 -5.09375 L 7.542969 -4.53125 L 2.332031 -4.53125 L 2.332031 -5.09375 M 3.363281 -4.023438 C 3.699219 -3.109375 4.0625 -2.007812 4.457031 -0.710938 L 3.828125 -0.527344 C 3.484375 -1.769531 3.136719 -2.867188 2.789062 -3.824219 Z "/>
</g>
<g id="glyph-0-13">
<path d="M 4.785156 -0.242188 C 4.351562 -0.015625 3.808594 0.0976562 3.15625 0.0976562 C 2.3125 0.0976562 1.640625 -0.167969 1.136719 -0.703125 C 0.632812 -1.238281 0.378906 -1.949219 0.378906 -2.828125 C 0.378906 -3.777344 0.664062 -4.539062 1.230469 -5.117188 C 1.796875 -5.691406 2.519531 -5.980469 3.390625 -5.980469 C 3.953125 -5.980469 4.417969 -5.902344 4.785156 -5.742188 L 4.785156 -4.949219 C 4.363281 -5.179688 3.902344 -5.296875 3.398438 -5.296875 C 2.742188 -5.296875 2.207031 -5.078125 1.796875 -4.640625 C 1.382812 -4.207031 1.175781 -3.617188 1.175781 -2.875 C 1.175781 -2.171875 1.371094 -1.613281 1.753906 -1.199219 C 2.140625 -0.785156 2.644531 -0.578125 3.265625 -0.578125 C 3.847656 -0.578125 4.355469 -0.707031 4.785156 -0.972656 Z "/>
</g>
</g>
</defs>
<g fill="rgb(100%, 100%, 100%)" fill-opacity="1">
<use xlink:href="#glyph-0-0" x="30" y="28.229492"/>
<use xlink:href="#glyph-0-1" x="35" y="28.229492"/>
<use xlink:href="#glyph-0-2" x="38" y="28.229492"/>
<use xlink:href="#glyph-0-3" x="43" y="28.229492"/>
<use xlink:href="#glyph-0-4" x="45" y="28.229492"/>
<use xlink:href="#glyph-0-0" x="47" y="28.229492"/>
<use xlink:href="#glyph-0-1" x="52" y="28.229492"/>
<use xlink:href="#glyph-0-5" x="55" y="28.229492"/>
<use xlink:href="#glyph-0-6" x="60" y="28.229492"/>
</g>
<g fill="rgb(100%, 100%, 100%)" fill-opacity="1">
<use xlink:href="#glyph-0-7" x="68" y="28.229492"/>
<use xlink:href="#glyph-0-8" x="76" y="28.229492"/>
<use xlink:href="#glyph-0-9" x="84" y="28.229492"/>
<use xlink:href="#glyph-0-10" x="92" y="28.229492"/>
<use xlink:href="#glyph-0-11" x="100" y="28.229492"/>
<use xlink:href="#glyph-0-12" x="108" y="28.229492"/>
<use xlink:href="#glyph-0-4" x="116" y="28.229492"/>
</g>
<g fill="rgb(100%, 100%, 100%)" fill-opacity="1">
<use xlink:href="#glyph-0-13" x="118" y="28.229492"/>
</g>
</svg>
