<?xml version="1.0" encoding="UTF-8"?>
<svg xmlns="http://www.w3.org/2000/svg" xmlns:xlink="http://www.w3.org/1999/xlink" width="854" height="480" viewBox="0 0 854 480">
<defs>
<g>
<g id="glyph-0-0">
<path d="M 0.625 -6.117188 L 3.789062 -6.117188 C 3.808594 -6.835938 3.820312 -7.5625 3.828125 -8.304688 L 4.679688 -8.304688 C 4.664062 -7.617188 4.648438 -6.886719 4.628906 -6.117188 L 9.109375 -6.117188 C 9.03125 -3.574219 8.957031 -1.773438 8.886719 -0.71875 C 8.800781 0.402344 8.203125 0.96875 7.089844 0.980469 C 6.554688 0.980469 5.910156 0.96875 5.15625 0.941406 C 5.128906 0.6875 5.082031 0.378906 5.007812 0.015625 L 5.039062 0.015625 C 5.886719 0.09375 6.542969 0.128906 7.011719 0.121094 C 7.644531 0.109375 7.992188 -0.238281 8.054688 -0.921875 C 8.132812 -2.089844 8.191406 -3.554688 8.234375 -5.316406 L 4.609375 -5.316406 C 4.550781 -3.621094 4.28125 -2.34375 3.796875 -1.488281 C 3.285156 -0.539062 2.28125 0.375 0.789062 1.253906 C 0.609375 1.019531 0.414062 0.773438 0.203125 0.511719 C 1.617188 -0.28125 2.546875 -1.082031 2.988281 -1.890625 C 3.445312 -2.621094 3.703125 -3.765625 3.757812 -5.316406 L 0.625 -5.316406 Z "/>
</g>
<g id="glyph-0-1">
<path d="M 0.554688 -6.695312 L 1.542969 -6.695312 C 1.785156 -7.285156 1.980469 -7.828125 2.140625 -8.316406 L 2.960938 -8.082031 C 2.753906 -7.582031 2.554688 -7.121094 2.363281 -6.695312 L 4.316406 -6.695312 L 4.316406 1.078125 L 3.535156 1.078125 L 3.535156 0.316406 L 1.335938 0.316406 L 1.335938 1.148438 L 0.554688 1.148438 L 0.554688 -6.695312 M 4.460938 -4.691406 C 5.074219 -5.664062 5.59375 -6.871094 6.015625 -8.316406 L 6.835938 -8.109375 C 6.671875 -7.617188 6.5 -7.15625 6.328125 -6.722656 L 9.472656 -6.722656 C 9.394531 -3.378906 9.328125 -1.269531 9.277344 -0.40625 C 9.230469 0.617188 8.695312 1.128906 7.664062 1.128906 C 7.074219 1.128906 6.472656 1.109375 5.859375 1.070312 C 5.820312 0.742188 5.769531 0.453125 5.703125 0.199219 L 5.734375 0.199219 C 6.382812 0.292969 6.980469 0.335938 7.519531 0.335938 C 8.113281 0.335938 8.429688 0.0234375 8.476562 -0.601562 C 8.546875 -1.570312 8.601562 -3.367188 8.632812 -5.992188 L 6.015625 -5.992188 C 5.734375 -5.363281 5.4375 -4.808594 5.136719 -4.332031 C 4.960938 -4.453125 4.734375 -4.574219 4.460938 -4.691406 M 1.335938 -0.414062 L 3.535156 -0.414062 L 3.535156 -2.886719 L 1.335938 -2.886719 L 1.335938 -0.414062 M 3.535156 -5.960938 L 1.335938 -5.960938 L 1.335938 -3.589844 L 3.535156 -3.589844 L 3.535156 -5.960938 M 5.320312 -4.027344 L 5.917969 -4.46875 C 6.640625 -3.613281 7.21875 -2.875 7.648438 -2.25 L 6.921875 -1.742188 C 6.460938 -2.5 5.929688 -3.261719 5.320312 -4.027344 Z "/>
</g>
<g id="glyph-0-2">
<path d="M 0.136719 0.53125 C 2.820312 -0.664062 4.269531 -2.457031 4.484375 -4.847656 L 0.3125 -4.847656 L 0.3125 -5.609375 L 4.515625 -5.609375 C 4.53125 -6.484375 4.539062 -7.367188 4.539062 -8.257812 L 5.390625 -8.257812 C 5.390625 -7.382812 5.382812 -6.5 5.367188 -5.609375 L 9.695312 -5.609375 L 9.695312 -4.847656 L 5.351562 -4.847656 C 5.8125 -2.246094 7.332031 -0.53125 9.902344 0.296875 C 9.570312 0.617188 9.324219 0.878906 9.160156 1.089844 C 7.039062 0.234375 5.65625 -1.28125 5.003906 -3.46875 C 4.496094 -1.492188 3.078125 0.09375 0.742188 1.285156 C 0.613281 1.109375 0.410156 0.859375 0.136719 0.53125 Z "/>
</g>
<g id="glyph-0-3">
<path d="M 2.363281 -6.058594 L 3.164062 -5.777344 C 2.539062 -3.992188 1.808594 -2.316406 0.976562 -0.746094 C 0.753906 -0.882812 0.488281 -1.03125 0.175781 -1.1875 C 0.925781 -2.449219 1.652344 -4.074219 2.363281 -6.058594 M 6.71875 -5.6875 L 7.453125 -6.039062 C 8.277344 -4.535156 9.085938 -2.953125 9.875 -1.292969 L 8.984375 -0.875 C 8.191406 -2.714844 7.433594 -4.320312 6.71875 -5.6875 M 4.6875 -8.199219 L 5.554688 -8.199219 L 5.554688 -0.101562 C 5.554688 0.742188 5.097656 1.167969 4.179688 1.167969 C 3.816406 1.167969 3.328125 1.15625 2.726562 1.136719 C 2.679688 0.851562 2.625 0.546875 2.558594 0.21875 C 3.183594 0.277344 3.664062 0.308594 3.992188 0.308594 C 4.457031 0.308594 4.6875 0.0976562 4.6875 -0.316406 Z "/>
</g>
<g id="glyph-0-4">
<path d="M 1.816406 -3.726562 L 1.816406 -4.46875 L 2.207031 -8.324219 L 3.015625 -8.324219 L 2.867188 -6.773438 L 9.796875 -6.773438 L 9.796875 -6.03125 L 2.796875 -6.03125 L 2.648438 -4.46875 L 9.082031 -4.46875 C 9.003906 -3.101562 8.914062 -1.828125 8.820312 -0.648438 C 8.726562 0.0390625 8.527344 0.507812 8.222656 0.746094 C 7.929688 0.980469 7.441406 1.097656 6.753906 1.097656 C 6.113281 1.09375 5.371094 1.078125 4.53125 1.058594 C 4.492188 0.839844 4.4375 0.554688 4.367188 0.210938 C 5.355469 0.28125 6.09375 0.320312 6.582031 0.328125 C 7.453125 0.386719 7.929688 0.0429688 8.007812 -0.699219 C 8.09375 -1.5625 8.164062 -2.574219 8.222656 -3.726562 L 1.816406 -3.726562 M 0.164062 -2.203125 L 7.402344 -2.203125 L 7.402344 -1.460938 L 0.164062 -1.460938 Z "/>
</g>
<g id="glyph-0-5">
<path d="M 0.632812 -7.027344 L 4.238281 -7.027344 L 4.238281 -8.277344 L 5.046875 -8.277344 L 5.046875 -7.027344 L 8.664062 -7.027344 L 8.664062 -1.539062 L 5.046875 -1.539062 L 5.046875 -0.394531 C 5.046875 0 5.257812 0.199219 5.671875 0.199219 L 7.960938 0.199219 C 8.402344 0.199219 8.671875 0.0546875 8.769531 -0.238281 C 8.875 -0.558594 8.949219 -1.015625 8.992188 -1.617188 C 9.183594 -1.53125 9.453125 -1.429688 9.804688 -1.3125 C 9.726562 -0.792969 9.640625 -0.347656 9.539062 0.0234375 C 9.378906 0.636719 8.9375 0.941406 8.210938 0.941406 L 5.617188 0.941406 C 4.695312 0.941406 4.238281 0.492188 4.238281 -0.40625 L 4.238281 -1.539062 L 1.445312 -1.539062 L 1.445312 -0.863281 L 0.632812 -0.863281 L 0.632812 -7.027344 M 7.851562 -2.269531 L 7.851562 -3.941406 L 5.046875 -3.941406 L 5.046875 -2.269531 L 7.851562 -2.269531 M 1.445312 -2.269531 L 4.238281 -2.269531 L 4.238281 -3.941406 L 1.445312 -3.941406 L 1.445312 -2.269531 M 7.851562 -6.292969 L 5.046875 -6.292969 L 5.046875 -4.632812 L 7.851562 -4.632812 L 7.851562 -6.292969 M 1.445312 -4.632812 L 4.238281 -4.632812 L 4.238281 -6.292969 L 1.445312 -6.292969 Z "/>
</g>
<g id="glyph-0-6">
<path d="M 3.398438 -5.472656 L 9.734375 -5.472656 L 9.734375 -4.789062 L 8.679688 -4.789062 L 8.679688 -0.179688 C 8.679688 0.683594 8.257812 1.117188 7.414062 1.117188 L 6.023438 1.117188 C 6 0.921875 5.941406 0.652344 5.851562 0.308594 C 6.363281 0.351562 6.820312 0.375 7.21875 0.375 C 7.6875 0.375 7.921875 0.125 7.921875 -0.375 L 7.921875 -4.789062 L 3.398438 -4.789062 L 3.398438 -5.472656 M 3.671875 -3.785156 L 6.796875 -3.785156 L 6.796875 -0.84375 L 4.394531 -0.84375 L 4.394531 -0.328125 L 3.671875 -0.328125 L 3.671875 -3.785156 M 0.34375 -7.386719 L 3.085938 -7.386719 L 3.085938 -8.324219 L 3.847656 -8.324219 L 3.847656 -7.386719 L 6.269531 -7.386719 L 6.269531 -8.324219 L 7.03125 -8.324219 L 7.03125 -7.386719 L 9.804688 -7.386719 L 9.804688 -6.683594 L 7.03125 -6.683594 L 7.03125 -5.980469 L 6.269531 -5.980469 L 6.269531 -6.683594 L 3.847656 -6.683594 L 3.847656 -6.03125 L 3.085938 -6.03125 L 3.085938 -6.683594 L 0.34375 -6.683594 L 0.34375 -7.386719 M 0.109375 -2.582031 C 1.082031 -3.597656 1.847656 -4.742188 2.402344 -6.011719 L 3.132812 -5.71875 C 2.878906 -5.207031 2.617188 -4.730469 2.351562 -4.289062 L 2.351562 1.246094 L 1.59375 1.246094 L 1.59375 -3.132812 C 1.246094 -2.664062 0.894531 -2.246094 0.539062 -1.890625 C 0.414062 -2.097656 0.269531 -2.328125 0.109375 -2.582031 M 6.074219 -1.507812 L 6.074219 -3.121094 L 4.394531 -3.121094 L 4.394531 -1.507812 Z "/>
</g>
<g id="glyph-0-7">
<path d="M 0.175781 0.433594 L 4.65625 0.433594 L 4.65625 -0.121094 L 0.742188 -0.121094 L 0.742188 -0.628906 L 4.65625 -0.628906 L 4.65625 -1.1875 L 2.335938 -1.1875 L 2.335938 -0.933594 L 1.671875 -0.933594 L 1.671875 -3.929688 L 8.359375 -3.929688 L 8.359375 -0.933594 L 7.695312 -0.933594 L 7.695312 -1.1875 L 5.34375 -1.1875 L 5.34375 -0.628906 L 9.265625 -0.628906 L 9.265625 -0.121094 L 5.34375 -0.121094 L 5.34375 0.433594 L 9.824219 0.433594 L 9.824219 0.960938 L 0.175781 0.960938 L 0.175781 0.433594 M 1.75 -7.925781 L 8.289062 -7.925781 L 8.289062 -5.132812 L 7.625 -5.132812 L 7.625 -5.394531 L 2.414062 -5.394531 L 2.414062 -5.132812 L 1.75 -5.132812 L 1.75 -7.925781 M 0.253906 -4.925781 L 9.785156 -4.925781 L 9.785156 -4.398438 L 0.253906 -4.398438 L 0.253906 -4.925781 M 2.414062 -5.902344 L 7.625 -5.902344 L 7.625 -6.429688 L 2.414062 -6.429688 L 2.414062 -5.902344 M 7.625 -7.417969 L 2.414062 -7.417969 L 2.414062 -6.898438 L 7.625 -6.898438 L 7.625 -7.417969 M 5.34375 -1.695312 L 7.695312 -1.695312 L 7.695312 -2.328125 L 5.34375 -2.328125 L 5.34375 -1.695312 M 2.335938 -1.695312 L 4.65625 -1.695312 L 4.65625 -2.328125 L 2.335938 -2.328125 L 2.335938 -1.695312 M 7.695312 -3.421875 L 5.34375 -3.421875 L 5.34375 -2.796875 L 7.695312 -2.796875 L 7.695312 -3.421875 M 2.335938 -2.796875 L 4.65625 -2.796875 L 4.65625 -3.421875 L 2.335938 -3.421875 Z "/>
</g>
<g id="glyph-0-8">
<path d="M 4.296875 0.542969 C 5.046875 0.0390625 5.71875 -0.550781 6.308594 -1.21875 C 5.929688 -2.179688 5.707031 -3.730469 5.640625 -5.875 L 1.953125 -5.875 L 1.953125 -4.390625 L 4.765625 -4.390625 C 4.726562 -3.144531 4.675781 -2.101562 4.609375 -1.253906 C 4.53125 -0.355469 4.09375 0.09375 3.300781 0.09375 C 3.035156 0.09375 2.679688 0.078125 2.234375 0.0546875 C 2.195312 -0.1875 2.144531 -0.457031 2.078125 -0.757812 C 2.535156 -0.691406 2.917969 -0.660156 3.222656 -0.660156 C 3.601562 -0.660156 3.8125 -0.917969 3.859375 -1.441406 C 3.910156 -2.039062 3.949219 -2.78125 3.976562 -3.667969 L 1.949219 -3.667969 C 1.894531 -1.40625 1.4375 0.269531 0.578125 1.351562 C 0.414062 1.132812 0.242188 0.90625 0.0703125 0.679688 C 0.804688 -0.296875 1.171875 -1.839844 1.171875 -3.949219 L 1.171875 -6.597656 L 5.609375 -6.597656 C 5.585938 -7.109375 5.566406 -7.667969 5.546875 -8.265625 L 6.359375 -8.265625 C 6.355469 -7.808594 6.363281 -7.25 6.382812 -6.597656 L 9.746094 -6.597656 L 9.746094 -5.875 L 6.40625 -5.875 C 6.472656 -4.121094 6.632812 -2.8125 6.890625 -1.949219 C 7.519531 -2.804688 8.039062 -3.773438 8.445312 -4.859375 L 9.21875 -4.535156 C 8.660156 -3.210938 7.988281 -2.058594 7.203125 -1.078125 C 7.679688 -0.105469 8.148438 0.382812 8.601562 0.382812 C 8.769531 0.382812 8.898438 0.230469 8.984375 -0.0742188 C 9.074219 -0.546875 9.148438 -1.035156 9.199219 -1.539062 C 9.480469 -1.425781 9.726562 -1.335938 9.941406 -1.265625 C 9.84375 -0.566406 9.734375 0 9.617188 0.445312 C 9.496094 0.917969 9.222656 1.175781 8.796875 1.214844 C 8.402344 1.242188 8.019531 1.109375 7.65625 0.816406 C 7.261719 0.511719 6.925781 0.0976562 6.648438 -0.433594 C 6.101562 0.15625 5.5 0.679688 4.851562 1.128906 C 4.683594 0.933594 4.5 0.738281 4.296875 0.542969 M 7.101562 -7.789062 L 7.507812 -8.296875 C 8.054688 -7.984375 8.566406 -7.65625 9.042969 -7.320312 L 8.574219 -6.734375 C 8.105469 -7.105469 7.613281 -7.457031 7.101562 -7.789062 Z "/>
</g>
<g id="glyph-0-9">
<path d="M 0.136719 -0.101562 L 1.726562 -0.101562 L 1.726562 -5.335938 L 2.570312 -5.335938 L 2.570312 -0.101562 L 5.046875 -0.101562 L 5.046875 -6.734375 L 0.585938 -6.734375 L 0.585938 -7.496094 L 9.472656 -7.496094 L 9.472656 -6.734375 L 5.890625 -6.734375 L 5.890625 -4.175781 L 9.140625 -4.175781 L 9.140625 -3.421875 L 5.890625 -3.421875 L 5.890625 -0.101562 L 9.863281 -0.101562 L 9.863281 0.660156 L 0.136719 0.660156 Z "/>
</g>
<g id="glyph-0-10">
<path d="M 5.039062 -8.304688 L 5.851562 -8.304688 L 5.851562 -4.175781 C 7.117188 -5.089844 8.15625 -6.046875 8.976562 -7.046875 L 9.667969 -6.527344 C 8.613281 -5.367188 7.339844 -4.261719 5.851562 -3.210938 L 5.851562 -0.386719 C 5.851562 0.0429688 6.039062 0.257812 6.414062 0.257812 L 8.085938 0.257812 C 8.515625 0.257812 8.761719 0.0664062 8.828125 -0.316406 C 8.90625 -0.8125 8.964844 -1.355469 9.003906 -1.949219 C 9.277344 -1.84375 9.558594 -1.75 9.84375 -1.664062 C 9.785156 -1.058594 9.707031 -0.515625 9.609375 -0.0351562 C 9.472656 0.636719 9.039062 0.972656 8.3125 0.972656 L 6.164062 0.972656 C 5.414062 0.972656 5.039062 0.566406 5.039062 -0.25 L 5.039062 -8.304688 M 1.660156 -8.050781 L 1.660156 -5.121094 L 4.414062 -5.121094 L 4.414062 -4.390625 L 1.660156 -4.390625 L 1.660156 -0.238281 C 2.335938 -0.527344 3.222656 -0.929688 4.316406 -1.449219 C 4.316406 -1.144531 4.328125 -0.851562 4.355469 -0.570312 C 3.398438 -0.1875 2.585938 0.175781 1.921875 0.511719 C 1.636719 0.664062 1.375 0.839844 1.132812 1.050781 L 0.539062 0.289062 C 0.746094 0.132812 0.851562 -0.105469 0.851562 -0.425781 L 0.851562 -8.050781 Z "/>
</g>
<g id="glyph-0-11">
<path d="M 3.015625 -1.210938 L 2.191406 1.390625 L 1.507812 1.390625 L 2.109375 -1.210938 Z "/>
</g>
<g id="glyph-0-12">
<path d="M 4.667969 -7.738281 L 9.726562 -7.738281 L 9.726562 -7.035156 L 5.410156 -7.035156 L 5.410156 -5.199219 L 9.238281 -5.199219 L 9.238281 -1.546875 L 8.515625 -1.546875 L 8.515625 -1.917969 L 5.410156 -1.917969 L 5.410156 0.199219 L 9.84375 0.199219 L 9.84375 0.902344 L 4.667969 0.902344 L 4.667969 -7.738281 M 0.109375 0.0546875 L 0.664062 -0.0351562 L 0.664062 -3.871094 L 1.296875 -3.871094 L 1.296875 -0.140625 C 1.613281 -0.195312 1.929688 -0.253906 2.246094 -0.316406 L 2.246094 -4.878906 L 1.464844 -4.878906 L 1.464844 -4.554688 L 0.820312 -4.554688 L 0.820312 -7.789062 L 3.820312 -7.789062 L 3.820312 -4.878906 L 2.898438 -4.878906 L 2.898438 -3.160156 L 4.042969 -3.160156 L 4.042969 -2.542969 L 2.898438 -2.542969 L 2.898438 -0.445312 C 3.300781 -0.527344 3.703125 -0.609375 4.109375 -0.699219 C 4.117188 -0.417969 4.132812 -0.179688 4.148438 0.015625 C 2.652344 0.289062 1.382812 0.550781 0.34375 0.804688 L 0.109375 0.0546875 M 8.515625 -4.515625 L 5.410156 -4.515625 L 5.410156 -2.601562 L 8.515625 -2.601562 L 8.515625 -4.515625 M 3.164062 -5.445312 L 3.164062 -7.222656 L 1.464844 -7.222656 L 1.464844 -5.445312 Z "/>
</g>
<g id="glyph-0-13">
<path d="M 3.71875 -0.71875 C 4.476562 -0.742188 5.253906 -0.773438 6.058594 -0.8125 C 5.890625 -1 5.71875 -1.1875 5.546875 -1.371094 L 6.035156 -1.753906 C 6.542969 -1.246094 7.023438 -0.738281 7.46875 -0.230469 L 6.953125 0.21875 C 6.828125 0.0742188 6.707031 -0.0742188 6.582031 -0.21875 C 5.75 -0.179688 4.835938 -0.128906 3.828125 -0.0625 C 3.542969 -0.0429688 3.234375 -0.0078125 2.910156 0.0429688 L 2.636719 -0.648438 C 2.910156 -0.820312 3.140625 -1.03125 3.328125 -1.285156 C 3.484375 -1.496094 3.636719 -1.734375 3.789062 -1.996094 L 1.648438 -1.996094 L 1.648438 1.285156 L 0.917969 1.285156 L 0.917969 -2.640625 L 4.140625 -2.640625 C 4.28125 -2.910156 4.417969 -3.203125 4.554688 -3.519531 L 1.289062 -3.519531 L 1.289062 -6.351562 L 2 -6.351562 L 2 -4.144531 L 7.988281 -4.144531 L 7.988281 -6.363281 L 8.703125 -6.363281 L 8.703125 -3.167969 L 7.988281 -3.167969 L 7.988281 -3.519531 L 5.425781 -3.519531 C 5.269531 -3.21875 5.109375 -2.925781 4.953125 -2.640625 L 9.0625 -2.640625 L 9.0625 0.191406 C 9.0625 0.886719 8.738281 1.234375 8.085938 1.234375 C 7.773438 1.234375 7.429688 1.230469 7.0625 1.214844 C 7.035156 0.988281 6.988281 0.738281 6.921875 0.464844 C 7.308594 0.503906 7.636719 0.523438 7.910156 0.523438 C 8.191406 0.523438 8.328125 0.375 8.328125 0.0820312 L 8.328125 -1.996094 L 4.574219 -1.996094 C 4.296875 -1.539062 4.011719 -1.113281 3.71875 -0.71875 M 0.3125 -7.398438 L 4.5625 -7.398438 C 4.421875 -7.640625 4.292969 -7.859375 4.171875 -8.050781 L 4.921875 -8.394531 C 5.085938 -8.152344 5.292969 -7.820312 5.53125 -7.398438 L 9.6875 -7.398438 L 9.6875 -6.734375 L 0.3125 -6.734375 L 0.3125 -7.398438 M 2.519531 -6.070312 L 2.78125 -6.585938 C 3.53125 -6.347656 4.320312 -6.078125 5.148438 -5.78125 C 5.8125 -6.046875 6.441406 -6.332031 7.03125 -6.636719 L 7.324219 -6.136719 C 6.886719 -5.910156 6.433594 -5.695312 5.960938 -5.488281 C 6.445312 -5.308594 6.945312 -5.121094 7.460938 -4.925781 L 7.195312 -4.371094 C 6.5 -4.65625 5.832031 -4.921875 5.195312 -5.160156 C 4.40625 -4.84375 3.578125 -4.554688 2.703125 -4.292969 C 2.585938 -4.5 2.46875 -4.6875 2.351562 -4.847656 C 3.042969 -5.039062 3.703125 -5.25 4.332031 -5.472656 C 3.691406 -5.699219 3.089844 -5.898438 2.519531 -6.070312 Z "/>
</g>
<g id="glyph-0-14">
<path d="M 0.265625 -3.023438 L 4.589844 -3.023438 L 4.589844 -7.105469 L 0.703125 -7.105469 L 0.703125 -7.855469 L 9.335938 -7.855469 L 9.335938 -7.105469 L 5.410156 -7.105469 L 5.410156 -3.023438 L 9.765625 -3.023438 L 9.765625 -2.269531 L 5.410156 -2.269531 L 5.410156 1.324219 L 4.589844 1.324219 L 4.589844 -2.269531 L 0.265625 -2.269531 L 0.265625 -3.023438 M 6.171875 -4 C 6.886719 -4.753906 7.53125 -5.585938 8.105469 -6.5 L 8.835938 -6.03125 C 8.101562 -5.019531 7.414062 -4.175781 6.777344 -3.492188 L 6.171875 -4 M 1.203125 -6.03125 L 1.816406 -6.460938 C 2.546875 -5.605469 3.171875 -4.785156 3.703125 -3.988281 L 3.007812 -3.472656 C 2.507812 -4.285156 1.902344 -5.136719 1.203125 -6.03125 Z "/>
</g>
<g id="glyph-0-15">
<path d="M 0.304688 -6.625 L 4.992188 -6.625 C 4.660156 -7.25 4.402344 -7.707031 4.21875 -7.992188 L 4.980469 -8.355469 C 5.164062 -8.074219 5.4375 -7.617188 5.800781 -6.988281 L 5.085938 -6.625 L 9.71875 -6.625 L 9.71875 -5.882812 L 3.792969 -5.882812 C 3.769531 -5.292969 3.746094 -4.785156 3.71875 -4.371094 L 8.4375 -4.371094 C 8.359375 -2.957031 8.273438 -1.730469 8.183594 -0.6875 C 8.113281 0.488281 7.539062 1.078125 6.464844 1.078125 C 5.96875 1.078125 5.308594 1.054688 4.484375 1 C 4.449219 0.753906 4.402344 0.453125 4.335938 0.101562 C 5.164062 0.214844 5.832031 0.269531 6.347656 0.269531 C 6.945312 0.269531 7.28125 -0.0859375 7.351562 -0.796875 C 7.429688 -1.570312 7.5 -2.519531 7.558594 -3.636719 L 3.667969 -3.636719 C 3.484375 -1.488281 2.488281 0.175781 0.683594 1.363281 C 0.507812 1.152344 0.308594 0.933594 0.0859375 0.699219 C 1.804688 -0.433594 2.726562 -1.953125 2.851562 -3.851562 C 2.898438 -4.367188 2.933594 -5.042969 2.964844 -5.882812 L 0.304688 -5.882812 Z "/>
</g>
<g id="glyph-0-16">
<path d="M 1.375 -7.632812 C 3.96875 -7.652344 6.496094 -7.8125 8.964844 -8.109375 L 9.25 -7.328125 C 6.988281 -7.132812 4.617188 -7 2.140625 -6.929688 L 2.140625 -5.269531 L 8.808594 -5.269531 L 8.808594 -4.546875 C 8.273438 -3.105469 7.472656 -1.894531 6.40625 -0.921875 C 7.363281 -0.28125 8.523438 0.15625 9.890625 0.386719 C 9.65625 0.683594 9.453125 0.976562 9.277344 1.253906 C 7.898438 0.859375 6.734375 0.308594 5.777344 -0.394531 C 4.777344 0.363281 3.582031 0.953125 2.195312 1.371094 C 2.046875 1.144531 1.867188 0.894531 1.660156 0.621094 C 3.015625 0.253906 4.171875 -0.265625 5.121094 -0.933594 C 4.058594 -1.898438 3.320312 -3.105469 2.90625 -4.546875 L 2.140625 -4.546875 L 2.140625 -3.988281 C 2.136719 -1.679688 1.640625 0.0976562 0.644531 1.332031 C 0.476562 1.125 0.292969 0.917969 0.0976562 0.707031 C 0.949219 -0.347656 1.375 -1.914062 1.375 -3.988281 L 1.375 -7.632812 M 7.890625 -4.546875 L 3.695312 -4.546875 C 4.140625 -3.261719 4.828125 -2.222656 5.75 -1.421875 C 6.730469 -2.265625 7.445312 -3.308594 7.890625 -4.546875 Z "/>
</g>
</g>
</defs>
<g fill="rgb(100%, 100%, 100%)" fill-opacity="1">
<use xlink:href="#glyph-0-0" x="30" y="30.581055"/>
<use xlink:href="#glyph-0-1" x="40" y="30.581055"/>
<use xlink:href="#glyph-0-2" x="50" y="30.581055"/>
<use xlink:href="#glyph-0-3" x="60" y="30.581055"/>
<use xlink:href="#glyph-0-4" x="70" y="30.581055"/>
<use xlink:href="#glyph-0-5" x="80" y="30.581055"/>
<use xlink:href="#glyph-0-6" x="90" y="30.581055"/>
<use xlink:href="#glyph-0-7" x="100" y="30.581055"/>
<use xlink:href="#glyph-0-8" x="110" y="30.581055"/>
<use xlink:href="#glyph-0-9" x="120" y="30.581055"/>
<use xlink:href="#glyph-0-10" x="130" y="30.581055"/>
<use xlink:href="#glyph-0-11" x="140" y="30.581055"/>
<use xlink:href="#glyph-0-4" x="150" y="30.581055"/>
<use xlink:href="#glyph-0-12" x="160" y="30.581055"/>
<use xlink:href="#glyph-0-13" x="170" y="30.581055"/>
<use xlink:href="#glyph-0-1" x="180" y="30.581055"/>
<use xlink:href="#glyph-0-14" x="190" y="30.581055"/>
<use xlink:href="#glyph-0-15" x="200" y="30.581055"/>
<use xlink:href="#glyph-0-8" x="210" y="30.581055"/>
<use xlink:href="#glyph-0-16" x="220" y="30.581055"/>
<use xlink:href="#glyph-0-10" x="230" y="30.581055"/>
</g>
</svg>
